<?xml version="1.0" encoding="utf-8"?>
<!-- Generator: Adobe Illustrator 25.4.1, SVG Export Plug-In . SVG Version: 6.00 Build 0)  -->
<svg version="1.1" id="Layer_1" xmlns="http://www.w3.org/2000/svg" xmlns:xlink="http://www.w3.org/1999/xlink" x="0px" y="0px"
	 viewBox="0 0 191.6 195.8" style="enable-background:new 0 0 191.6 195.8;" xml:space="preserve">
<style type="text/css">
	.st0{opacity:0.6;fill:#C4C6C8;}
	.st1{fill:#D0A68D;}
	.st2{fill:#B5826A;}
	.st3{opacity:0.3;fill:#D0A68D;}
	.st4{fill:#BEA18D;}
	.st5{fill:#A2755F;}
	.st6{opacity:0.4;fill:#BEA18D;}
	.st7{fill:#545454;}
</style>
<g>
	<polygon class="st0" points="162.6,164.2 93.8,164.2 87.7,164.2 27.9,164.2 17.5,195.8 85.6,195.8 93.8,195.8 173.1,195.8 	"/>
	<g>
		<rect x="24.3" y="48.4" class="st1" width="143.3" height="143.3"/>
		<path class="st2" d="M167.6,192.1H24.3c-0.2,0-0.4-0.2-0.4-0.4V48.4c0-0.2,0.2-0.4,0.4-0.4h143.3c0.2,0,0.4,0.2,0.4,0.4v143.3
			C168,191.9,167.8,192.1,167.6,192.1z M24.6,191.3h142.6V48.8H24.6V191.3z"/>
	</g>
	<path class="st3" d="M24.3,48.4v143.3h143.3V48.4H24.3z M145.7,184.1c0,4.6-10.4,4.1-10.4,4.1h-99c-9.7,0-8.5-11.6-8.5-11.6
		s0-74.3,0-82.7c0-8.4,8.3-8.3,8.3-8.3h70.2h29.2c9.7,0,10.1,10.9,10.1,10.9V184.1z"/>
	<g>
		<polygon class="st4" points="158,22 94.5,22 88.9,22 33.9,22 24.3,48.4 87,48.4 94.5,48.4 167.6,48.4 		"/>
		<path class="st2" d="M167.6,48.8H24.3c-0.1,0-0.2-0.1-0.3-0.2c-0.1-0.1-0.1-0.2,0-0.4l9.6-26.4c0.1-0.2,0.2-0.3,0.4-0.3H158
			c0.2,0,0.3,0.1,0.4,0.3l9.6,26.4c0,0.1,0,0.2,0,0.4C167.8,48.7,167.7,48.8,167.6,48.8z M24.8,48H167l-9.3-25.6H34.1L24.8,48z"/>
	</g>
	<g>
		<polygon class="st4" points="158.2,48.4 167.6,48.4 158,22 		"/>
		<path class="st5" d="M167.6,48.8h-9.4c-0.2,0-0.4-0.2-0.4-0.4L157.6,22c0-0.2,0.1-0.3,0.3-0.4c0.2,0,0.4,0.1,0.4,0.2l9.6,26.4
			c0,0.1,0,0.2,0,0.4C167.8,48.7,167.7,48.8,167.6,48.8z M158.6,48h8.4l-8.6-23.8L158.6,48z"/>
	</g>
	<g>
		<polygon class="st4" points="33.5,22.9 24.3,48.4 33.5,48.4 		"/>
		<path class="st5" d="M33.5,48.8h-9.3c-0.1,0-0.2-0.1-0.3-0.2c-0.1-0.1-0.1-0.2,0-0.4l9.3-25.5c0.1-0.2,0.2-0.3,0.4-0.2
			c0.2,0,0.3,0.2,0.3,0.4v25.5C33.9,48.6,33.7,48.8,33.5,48.8z M24.8,48h8.3V25.1L24.8,48z"/>
	</g>
	<polygon class="st6" points="158.2,48.4 167.6,48.4 158,22 	"/>
	<polygon class="st6" points="33.5,22.9 24.3,48.4 33.5,48.4 	"/>
	<g>
		<polygon class="st1" points="24.3,48.4 0.4,28.9 14.5,6.8 33.9,22 		"/>
		<path class="st2" d="M24.3,48.8c-0.1,0-0.2,0-0.2-0.1L0.1,29.2C0,29.1,0,28.8,0.1,28.7l14.2-22c0.1-0.1,0.2-0.2,0.3-0.2
			c0.1,0,0.2,0,0.3,0.1l19.3,15.2c0.1,0.1,0.2,0.3,0.1,0.4l-9.6,26.4c0,0.1-0.1,0.2-0.3,0.2C24.3,48.8,24.3,48.8,24.3,48.8z
			 M0.9,28.8l23.2,19l9.3-25.6L14.6,7.4L0.9,28.8z"/>
	</g>
	<path class="st6" d="M14.5,6.8l-14.2,22l23.9,19.5L33.9,22L14.5,6.8z M23.7,42.9L4.5,28.4l11.3-17.2l15.4,13.5L23.7,42.9z"/>
	<g>
		<polygon class="st1" points="167.4,48.4 191.2,28.9 177.1,6.8 157.8,22 		"/>
		<path class="st2" d="M167.4,48.8c0,0-0.1,0-0.1,0c-0.1,0-0.2-0.1-0.3-0.2l-9.6-26.4c-0.1-0.2,0-0.3,0.1-0.4l19.3-15.2
			c0.1-0.1,0.2-0.1,0.3-0.1c0.1,0,0.2,0.1,0.3,0.2l14.2,22c0.1,0.2,0.1,0.4-0.1,0.5l-23.9,19.5C167.5,48.7,167.4,48.8,167.4,48.8z
			 M158.2,22.1l9.3,25.6l23.2-19L177,7.4L158.2,22.1z"/>
	</g>
	<path class="st6" d="M177.1,6.8L157.8,22l9.6,26.4l23.9-19.5L177.1,6.8z M162.8,22l12.6-10.8l10.8,16.4L171,41.3L162.8,22z"/>
	<g>
		<polygon class="st1" points="24.3,48.4 20.3,78.9 171,78.9 167.6,48.4 		"/>
		<path class="st2" d="M171,79.3H20.3c-0.1,0-0.2,0-0.3-0.1C20,79.1,19.9,79,20,78.9l3.9-30.5c0-0.2,0.2-0.3,0.4-0.3h143.3
			c0.2,0,0.4,0.1,0.4,0.3l3.4,30.5c0,0.1,0,0.2-0.1,0.3C171.2,79.3,171.1,79.3,171,79.3z M20.8,78.5h149.8l-3.3-29.8H24.6L20.8,78.5
			z"/>
	</g>
	<g>
		<polygon class="st1" points="133.2,0.4 58.8,0.4 28.7,0.4 33.5,22 58.8,22 133.2,22 158.4,22 163.2,0.4 		"/>
		<path class="st2" d="M158.4,22.4H33.5c-0.2,0-0.3-0.1-0.4-0.3L28.3,0.5c0-0.1,0-0.2,0.1-0.3C28.5,0.1,28.6,0,28.7,0h134.5
			c0.1,0,0.2,0.1,0.3,0.1c0.1,0.1,0.1,0.2,0.1,0.3l-4.8,21.6C158.7,22.3,158.6,22.4,158.4,22.4z M33.8,21.6h124.3l4.7-20.8H29.2
			L33.8,21.6z"/>
	</g>
	<path class="st6" d="M133.2,0.4H58.8H28.7L33.5,22h25.2h74.4h25.2l4.8-21.6H133.2z M143.2,19.2H35.4L31.7,2.8h115.1L143.2,19.2z"/>
	<polygon class="st4" points="158,50.1 26,50.1 21.8,74.5 27.2,53 	"/>
	<polygon class="st4" points="142.7,186.1 35.7,186.1 137.4,184.6 	"/>
	<g>
		<g>
			<path class="st7" d="M74.4,172.2c-4.1,0-7.4-0.8-9.8-2.4c-2.4-1.6-4.2-3.9-5.2-6.9c-1-3-1.6-6.6-1.6-10.7h9.1c0,2,0.2,4,0.5,6
				c0.3,1.9,1.1,3.6,2.2,4.8c1.1,1.3,2.8,1.9,5,1.9c2.5,0,4.3-0.7,5.3-2.2c1.1-1.4,1.8-3.4,2-5.8c0.3-2.5,0.4-5.2,0.4-8.3
				c0-3.1-0.2-5.7-0.5-7.9c-0.3-2.2-1-3.8-2.1-5c-1.1-1.2-2.8-1.7-5.1-1.7c-1.9,0-3.4,0.6-4.7,1.7c-1.3,1.2-2.3,2.5-2.9,3.9h-7.7
				v-36.8h29.6v9.1H67.6l-0.6,19c1.1-1.2,2.5-2.1,4.2-2.8c1.7-0.7,3.6-1,5.7-1c3.7,0,6.7,0.9,8.8,2.6c2.1,1.8,3.6,4.2,4.5,7.2
				c0.9,3,1.3,6.6,1.3,10.5c0,3.5-0.3,6.8-0.8,9.8c-0.5,3-1.4,5.6-2.7,7.9c-1.3,2.2-3,4-5.2,5.2C80.6,171.6,77.8,172.2,74.4,172.2z"
				/>
			<path class="st7" d="M116.1,172.3c-3.9,0-7.1-0.9-9.6-2.6c-2.5-1.8-4.4-4.2-5.6-7.2c-1.2-3-1.8-6.5-1.8-10.4v-29.6
				c0-4,0.6-7.5,1.8-10.5c1.2-3,3-5.4,5.5-7.1c2.5-1.7,5.7-2.5,9.7-2.5c4,0,7.2,0.8,9.7,2.5c2.5,1.7,4.3,4.1,5.5,7.1
				c1.2,3,1.8,6.5,1.8,10.5V152c0,4-0.6,7.5-1.8,10.5c-1.2,3-3.1,5.4-5.5,7.2C123.2,171.4,120,172.3,116.1,172.3z M116.1,164.8
				c2.1,0,3.8-0.6,4.9-1.9c1.1-1.2,1.9-2.8,2.3-4.8c0.4-1.9,0.6-4,0.6-6.1v-29.7c0-2.2-0.2-4.3-0.6-6.2c-0.4-1.9-1.1-3.5-2.2-4.7
				s-2.8-1.8-5-1.8c-2.2,0-3.9,0.6-5,1.8c-1.1,1.2-1.9,2.8-2.3,4.7c-0.4,1.9-0.6,4-0.6,6.2v29.7c0,2.1,0.2,4.1,0.6,6.1
				s1.2,3.5,2.4,4.8C112.4,164.2,114,164.8,116.1,164.8z"/>
		</g>
	</g>
</g>
</svg>
