<?xml version="1.0" encoding="utf-8"?>
<!-- Generator: Adobe Illustrator 25.4.1, SVG Export Plug-In . SVG Version: 6.00 Build 0)  -->
<svg version="1.1" id="Layer_1" xmlns="http://www.w3.org/2000/svg" xmlns:xlink="http://www.w3.org/1999/xlink" x="0px" y="0px"
	 viewBox="0 0 191.6 195.8" style="enable-background:new 0 0 191.6 195.8;" xml:space="preserve">
<style type="text/css">
	.st0{opacity:0.6;fill:#C4C6C8;}
	.st1{fill:#D0A68D;}
	.st2{fill:#B5826A;}
	.st3{opacity:0.3;fill:#D0A68D;}
	.st4{fill:#BEA18D;}
	.st5{fill:#A2755F;}
	.st6{opacity:0.4;fill:#BEA18D;}
	.st7{fill:#545454;}
</style>
<g>
	<polygon class="st0" points="155.4,164.2 95.3,164.2 90,164.2 37.9,164.2 28.9,195.8 88.2,195.8 95.3,195.8 164.5,195.8 	"/>
	<g>
		<rect x="35.9" y="71.7" class="st1" width="120" height="120"/>
		<path class="st2" d="M155.9,192.1h-120c-0.2,0-0.4-0.2-0.4-0.4v-120c0-0.2,0.2-0.4,0.4-0.4h120c0.2,0,0.4,0.2,0.4,0.4v120
			C156.3,191.9,156.1,192.1,155.9,192.1z M36.3,191.3h119.2V72.1H36.3V191.3z"/>
	</g>
	<path class="st3" d="M35.9,71.7v120h120v-120H35.9z M137.5,185.3c0,3.8-8.7,3.4-8.7,3.4H46c-8.1,0-7.1-9.7-7.1-9.7s0-62.2,0-69.3
		c0-7,6.9-6.9,6.9-6.9h58.8h24.5c8.1,0,8.5,9.1,8.5,9.1V185.3z"/>
	<g>
		<polygon class="st4" points="147.9,49.6 94.7,49.6 90,49.6 43.9,49.6 35.9,71.7 88.4,71.7 94.7,71.7 155.9,71.7 		"/>
		<path class="st2" d="M155.9,72.1h-120c-0.1,0-0.2-0.1-0.3-0.2c-0.1-0.1-0.1-0.2,0-0.4l8-22.1c0.1-0.2,0.2-0.3,0.4-0.3h103.9
			c0.2,0,0.3,0.1,0.4,0.3l8,22.1c0,0.1,0,0.2,0,0.4C156.1,72.1,156,72.1,155.9,72.1z M36.5,71.4h118.9L147.6,50H44.2L36.5,71.4z"/>
	</g>
	<g>
		<polygon class="st4" points="148,71.7 155.9,71.7 147.9,49.6 		"/>
		<path class="st5" d="M155.9,72.1H148c-0.2,0-0.4-0.2-0.4-0.4l-0.2-22.1c0-0.2,0.1-0.3,0.3-0.4c0.2,0,0.4,0.1,0.4,0.2l8,22.1
			c0,0.1,0,0.2,0,0.4C156.1,72.1,156,72.1,155.9,72.1z M148.4,71.4h6.9l-7.1-19.5L148.4,71.4z"/>
	</g>
	<g>
		<polygon class="st4" points="43.7,50.4 35.9,71.7 43.7,71.7 		"/>
		<path class="st5" d="M43.7,72.1h-7.8c-0.1,0-0.2-0.1-0.3-0.2c-0.1-0.1-0.1-0.2,0-0.4l7.8-21.4c0.1-0.2,0.2-0.3,0.4-0.2
			c0.2,0,0.3,0.2,0.3,0.4v21.4C44.1,71.9,43.9,72.1,43.7,72.1z M36.5,71.4h6.8V52.6L36.5,71.4z"/>
	</g>
	<polygon class="st6" points="148,71.7 155.9,71.7 147.9,49.6 	"/>
	<polygon class="st6" points="43.7,50.4 35.9,71.7 43.7,71.7 	"/>
	<g>
		<polygon class="st1" points="35.9,71.7 15.9,55.4 27.8,36.9 43.9,49.6 		"/>
		<path class="st2" d="M35.9,72.1c-0.1,0-0.2,0-0.2-0.1l-20-16.3c-0.2-0.1-0.2-0.3-0.1-0.5l11.9-18.5c0.1-0.1,0.2-0.2,0.3-0.2
			c0.1,0,0.2,0,0.3,0.1l16.2,12.7c0.1,0.1,0.2,0.3,0.1,0.4l-8,22.1c0,0.1-0.1,0.2-0.3,0.2C36,72.1,35.9,72.1,35.9,72.1z M16.4,55.3
			l19.3,15.8l7.8-21.3L27.9,37.5L16.4,55.3z"/>
	</g>
	<path class="st6" d="M27.8,36.9L15.9,55.4l20,16.3l8-22.1L27.8,36.9z M35.5,67.1L19.3,55l9.5-14.4l12.9,11.3L35.5,67.1z"/>
	<g>
		<polygon class="st1" points="155.7,71.7 175.7,55.4 163.8,36.9 147.7,49.6 		"/>
		<path class="st2" d="M155.7,72.1c0,0-0.1,0-0.1,0c-0.1,0-0.2-0.1-0.3-0.2l-8-22.1c-0.1-0.2,0-0.3,0.1-0.4l16.2-12.7
			c0.1-0.1,0.2-0.1,0.3-0.1c0.1,0,0.2,0.1,0.3,0.2L176,55.2c0.1,0.2,0.1,0.4-0.1,0.5l-20,16.3C155.9,72.1,155.8,72.1,155.7,72.1z
			 M148.1,49.8l7.8,21.3l19.3-15.8l-11.4-17.8L148.1,49.8z"/>
	</g>
	<path class="st6" d="M163.8,36.9l-16.2,12.7l8,22.1l20-16.3L163.8,36.9z M151.9,49.6l10.5-9l9,13.7l-12.7,11.4L151.9,49.6z"/>
	<g>
		<polygon class="st1" points="35.9,71.7 32.6,97.3 158.7,97.3 155.9,71.7 		"/>
		<path class="st2" d="M158.7,97.7H32.6c-0.1,0-0.2,0-0.3-0.1c-0.1-0.1-0.1-0.2-0.1-0.3l3.3-25.6c0-0.2,0.2-0.3,0.4-0.3h120
			c0.2,0,0.4,0.1,0.4,0.3l2.8,25.6c0,0.1,0,0.2-0.1,0.3C158.9,97.6,158.8,97.7,158.7,97.7z M33.1,96.9h125.2l-2.7-24.8H36.3
			L33.1,96.9z"/>
	</g>
	<g>
		<polygon class="st1" points="127.1,31.5 64.8,31.5 39.6,31.5 43.7,49.6 64.8,49.6 127.1,49.6 148.2,49.6 152.3,31.5 		"/>
		<path class="st2" d="M148.2,50H43.7c-0.2,0-0.3-0.1-0.4-0.3l-4-18.1c0-0.1,0-0.2,0.1-0.3c0.1-0.1,0.2-0.1,0.3-0.1h112.6
			c0.1,0,0.2,0.1,0.3,0.1c0.1,0.1,0.1,0.2,0.1,0.3l-4,18.1C148.5,49.9,148.4,50,148.2,50z M44,49.3h103.9l3.9-17.3H40.1L44,49.3z"/>
	</g>
	<path class="st6" d="M127.1,31.5H64.8H39.6l4,18.1h21.1h62.3h21.1l4-18.1H127.1z M135.5,47.3H45.2l-3.1-13.7h96.3L135.5,47.3z"/>
	<polygon class="st4" points="147.9,73.2 37.3,73.2 33.9,93.6 38.4,75.6 	"/>
	<polygon class="st4" points="135.1,187 45.5,187 130.6,185.8 	"/>
	<g>
		<g>
			<path class="st7" d="M65.7,172.8v-5l13.6-21.2c1-1.6,2-3.1,2.8-4.4c0.9-1.4,1.6-2.8,2.1-4.3c0.6-1.5,0.8-3.3,0.8-5.3
				c0-2.5-0.4-4.4-1.2-5.8c-0.8-1.4-2.2-2.1-4.2-2.1c-1.7,0-3,0.5-3.9,1.4s-1.6,2.1-1.9,3.6c-0.4,1.5-0.5,3.1-0.5,4.8v1.8h-7.1v-1.9
				c0-3.2,0.4-6,1.3-8.3c0.9-2.3,2.3-4.1,4.2-5.4c1.9-1.3,4.5-1.9,7.6-1.9c4.3,0,7.5,1.2,9.7,3.7s3.2,5.8,3.2,10.2
				c0,2.3-0.3,4.3-0.8,6c-0.6,1.7-1.3,3.3-2.2,4.8c-0.9,1.5-1.9,3-2.9,4.6L74,166.8H91v6H65.7z"/>
			<path class="st7" d="M111.8,173.4c-3,0-5.6-0.7-7.5-2.1c-2-1.4-3.4-3.2-4.4-5.6c-0.9-2.4-1.4-5.1-1.4-8.1v-23.1
				c0-3.1,0.5-5.9,1.4-8.2c0.9-2.4,2.4-4.2,4.3-5.5c2-1.3,4.5-2,7.6-2c3.1,0,5.6,0.7,7.5,2c1.9,1.3,3.4,3.2,4.3,5.5
				c0.9,2.4,1.4,5.1,1.4,8.2v23.1c0,3.1-0.5,5.8-1.4,8.2c-0.9,2.4-2.4,4.2-4.3,5.6C117.3,172.7,114.8,173.4,111.8,173.4z
				 M111.8,167.6c1.7,0,2.9-0.5,3.8-1.5c0.9-1,1.5-2.2,1.8-3.7c0.3-1.5,0.5-3.1,0.5-4.7v-23.2c0-1.7-0.2-3.3-0.5-4.9
				c-0.3-1.5-0.9-2.7-1.8-3.7c-0.9-0.9-2.2-1.4-3.9-1.4s-3,0.5-3.9,1.4c-0.9,0.9-1.5,2.2-1.8,3.7c-0.3,1.5-0.5,3.1-0.5,4.9v23.2
				c0,1.6,0.2,3.2,0.5,4.7c0.3,1.5,0.9,2.8,1.9,3.7C108.9,167.1,110.1,167.6,111.8,167.6z"/>
		</g>
	</g>
</g>
</svg>
