<?xml version="1.0" encoding="utf-8"?>
<!-- Generator: Adobe Illustrator 25.4.1, SVG Export Plug-In . SVG Version: 6.00 Build 0)  -->
<svg version="1.1" id="Layer_1" xmlns="http://www.w3.org/2000/svg" xmlns:xlink="http://www.w3.org/1999/xlink" x="0px" y="0px"
	 viewBox="0 0 2091 3062.7" style="enable-background:new 0 0 2091 3062.7;" xml:space="preserve">
<style type="text/css">
	.st0{opacity:0.2;}
	.st1{fill:#000072;}
	.st2{fill:#39D5FF;}
	.st3{opacity:0.6;}
	.st4{fill:#FFFFFF;}
	.st5{fill:#FD6CCB;}
	.st6{fill:#FFCCD9;}
	.st7{opacity:0.3;}
	.st8{fill:#6B184E;}
	.st9{opacity:0.5;}
	.st10{fill:#102770;}
	.st11{fill:#F2B6C2;}
	.st12{fill:#C9E9FF;}
	.st13{fill:#FFFEFB;}
	.st14{fill:#F883A0;}
	.st15{fill:none;stroke:#000072;stroke-width:28.4556;stroke-linecap:round;stroke-miterlimit:10;}
	.st16{fill:#FDD800;}
	.st17{fill:#ED197C;}
</style>
<g>
	<g>
		<g class="st0">
			<g>
				<ellipse class="st1" cx="1073.6" cy="2993.6" rx="849.6" ry="69.1"/>
			</g>
		</g>
		<g>
			<g>
				<path class="st2" d="M1994.2,2884.7L1994.2,2884.7c-108.8-38.7-141.5-117.7-141.8-199.5c-0.4-91,39.2-185.6,58.6-232.7
					c24.1-58.4,81.2-348.5-96.3-338.1c-101.3,6-201,116.6-245.6,173.1c-4.2-19.6-9.1-39-14.7-58c-2-6.8-4-13.5-6.1-20.2
					c27-65.9,82.2-161.3,183.7-201.8c162.4-64.8,336.4,4.7,322.3,277.6c-2.7,52.9-12.8,102.3-23.7,149.7
					c-14.5,63.1-30.4,122.5-32.4,181.1c-2.1,63.4,12.1,126,62.1,191.5C2090.4,2846.8,2054.3,2876,1994.2,2884.7z"/>
			</g>
			<g>
				<path class="st1" d="M1994.4,2887.2l-1.1-0.1c-94.8-33.7-143-101.7-143.4-201.9c-0.3-90.2,37.6-182.3,58-231.7l0.8-2
					c15.5-37.6,55.6-213.6-2.3-294.9c-20.5-28.7-51.3-42-91.5-39.7c-102.2,6-204.5,122.4-243.8,172.1l-3.3,4.2l-1.1-5.2
					c-4.1-19.1-9-38.6-14.6-57.8c-2-6.7-4-13.4-6.1-20.1l-0.3-0.9l0.3-0.8c29-70.6,84.6-163.1,185-203.2
					c86.7-34.6,171-29.6,231.4,13.6c47.6,34.1,102.5,107.9,94.3,266.5c-2.7,53.3-13,103.6-23.7,150.1c-2.1,9.1-4.2,18.2-6.3,27.1
					c-12.5,53.3-24.3,103.6-26,153.5c-2.4,71.4,17.2,131.7,61.6,189.9c10.9,14.3,14,28.5,8.9,41c-8.1,19.8-36,34.5-76.6,40.4
					L1994.4,2887.2z M1823.9,2111.7c37.6,0,66.7,14.1,86.6,42.1c59.2,83,18.6,261.6,2.9,299.7l-0.8,2
					c-20.3,49.1-58,140.6-57.6,229.8c0.4,97.7,47.3,163.9,139.5,197c38-5.6,64.9-19.5,72.1-37.2c4.4-10.9,1.7-23-8.3-36
					c-45.1-59.1-65-120.5-62.6-193.1c1.7-50.4,13.6-100.9,26.1-154.4c2.1-9,4.2-18,6.3-27.1c10.7-46.2,20.9-96.3,23.6-149.2
					c8.1-156.3-45.7-228.8-92.2-262.1c-58.9-42.2-141.5-47-226.6-13.1c-98.5,39.3-153.2,130-181.9,199.6c2,6.4,4,12.9,5.9,19.4
					c5.2,17.7,9.7,35.5,13.6,53c50.2-62.9,145.8-164.1,244.1-169.9C1817.7,2111.8,1820.8,2111.7,1823.9,2111.7z"/>
			</g>
		</g>
		<g class="st3">
			<path class="st4" d="M2054.3,2285.2c-2.7,52.9-12.8,102.3-23.7,149.7c-62.6-82.5,4-197.1-36.4-296.7
				c-23.9-59.1-106-113.5-220.5-95.8c-94.6,14.5-189.7,148.1-219.2,187.2c-2-6.8-4-13.5-6.1-20.2c27-65.9,82.2-161.3,183.7-201.8
				C1894.5,1942.7,2068.4,2012.2,2054.3,2285.2z"/>
		</g>
		<g>
			<path class="st1" d="M1995.3,2899.8h-1.1c-8.3,0-15-6.7-15-15c0-7.7,5.8-14,13.3-14.9c32.6-4.8,57.2-16.4,62.6-29.6
				c2.7-6.5,0.4-14.5-6.6-23.7c-93.9-123-67.1-237.1-38.7-358c13-55.3,26.4-112.4,29.6-174.1c6.2-119.2-23.9-206.1-87-251.3
				c-55.4-39.7-133.7-43.9-214.7-11.6c-92.4,36.8-145,121.8-173.3,188.5c7.8,25,14.4,50,19.5,74.4c1.7,8.1-3.5,16.1-11.6,17.8
				c-8.1,1.7-16.1-3.5-17.8-11.6c-5.3-25.1-12.2-51-20.4-76.7l-1.7-5.2l2.1-5c29.9-72.8,87.5-168.4,192-210
				c90.7-36.2,179.4-30.7,243.3,15.1c50.1,35.9,108,113.1,99.5,277.3c-3.3,64.3-17.1,122.8-30.3,179.4
				c-27.9,118.7-51.9,221.2,33.3,332.9c17.4,22.8,15.4,41.6,10.6,53.3c-9.9,24.3-40.6,41.4-86.4,48L1995.3,2899.8z"/>
		</g>
		<g>
			<g>
				<path class="st5" d="M1994.2,2884.7c-58.4,8.5-139.5-2.5-204.1-42.3l0,0c-53.1-63.5-52.8-143.5-35.2-223.4
					c32.6-148.8,125-297.4,43.7-339c-73.5-37.5-166.8,36.1-215.4,84.1c-2.2-14.2-4.7-28.2-7.5-41.8c0-0.1,0-0.2,0-0.3
					c-1.9-11.6,18.8-47.9,16.4-59.4c44.6-56.5,121.5-142.3,222.8-148.3c177.5-10.4,120.4,279.6,96.3,338.1
					c-19.4,47.1-59,141.7-58.6,232.7C1852.8,2767.1,1885.4,2846,1994.2,2884.7z"/>
			</g>
			<g>
				<path class="st1" d="M1956,2889.8c-49.4,0-112.6-11.5-167.3-45.2l-0.5-0.4c-46.2-55.4-57.6-127-35.9-225.8
					c9.9-45.4,25.1-89.9,39.8-132.9c32.1-94.1,59.8-175.4,5.2-203.3c-75.9-38.8-173.9,45.6-212.5,83.7l-3.5,3.4l-0.8-4.8
					c-2.2-14-4.7-28-7.4-41.7l0-0.4c-1-6.4,3.5-18,8.3-30.4c4.3-11.2,9.2-23.8,8.1-28.9l-0.2-1.1l0.7-0.9
					c48.3-61.2,124.1-143.3,224.6-149.2c42.1-2.5,74.3,11.6,95.9,41.8c59.2,83,18.6,261.6,2.9,299.7l-0.8,2
					c-20.3,49.1-58,140.6-57.6,229.8c0.4,97.9,47.5,164.2,140.1,197.2l9.5,3.4l-10,1.5C1983.2,2888.9,1970.2,2889.8,1956,2889.8z
					 M1791.7,2840.6c64.6,39.7,141.4,48,192,42.9c-88.4-34.8-133.4-101.5-133.8-198.3c-0.3-90.2,37.6-182.3,58-231.7l0.8-2
					c15.5-37.6,55.6-213.6-2.3-294.9c-20.5-28.7-51.3-42-91.5-39.7c-98,5.8-172.6,86.1-220.3,146.5c0.6,6.8-3.8,18.3-8.5,30.5
					c-4,10.4-8.6,22.3-8,27.5l0.1,0.2l0,0.8c2.4,11.8,4.7,24.2,6.7,36.7c41.5-40.2,138.3-120.3,214.9-81.2
					c58.5,29.9,30.1,113.1-2.7,209.4c-14.6,42.9-29.8,87.3-39.7,132.4C1736,2716.5,1746.9,2786.7,1791.7,2840.6z"/>
			</g>
		</g>
		<g>
			<path class="st1" d="M1956,2902.4c-51.4,0-117.1-12.2-173.8-47.1l-2.9-2.3l-0.8-0.9c-88.5-106-38.4-252.6,1.8-370.5
				c35-102.4,54.2-166.3,11.4-188.2c-68.7-35.1-161.4,45.3-198.1,81.5l-20.8,20.6l-4.5-28.9c-2-12.8-4.3-26-7-39.3l-0.1-0.2
				l-0.5-3.5c-1-8.3,1.4-19.2,4-31.7c1.6-7.3,4.2-19.6,3.7-23.1l-1.4-6.9l4.4-5.4c26.3-33.4,164.3-197.8,296.9-158.5
				c36.1,10.7,62.7,33.3,78.9,67.3c52.3,109.4-21.4,291.2-22.2,293l-0.9,2.1c-25.4,61.7-85,206.1-40.7,309.9
				c18.7,43.9,54.8,76.6,107.2,97.2h0c7.5,2.9,12,10.6,10.9,18.5c-1.1,8-7.4,14.1-15.4,14.9
				C1976.8,2901.8,1966.7,2902.4,1956,2902.4z M1800,2831c42.7,25.7,90.9,37.4,132.6,40.5c-35.3-22.7-61.1-52.7-76.8-89.5
				c-49.2-115.4,13.7-268,40.5-333.1l0.9-2.1c18.2-44.1,61.4-188.2,22.9-268.7c-12.6-26.3-32.3-43.2-60.4-51.5
				c-110-32.6-235.3,111.9-261.3,143.9c-0.2,7.1-1.9,15.8-4.4,27.4c-1.3,6-3.3,15.4-3.6,20.1l0.2,0.3l0,2.5
				c0.9,4.5,1.7,8.9,2.6,13.3c54.3-48.5,139.3-104.7,212.2-67.5c68.2,34.8,38.1,122.8,3.4,224.6
				C1769.2,2607,1724.5,2738.1,1800,2831z"/>
		</g>
		<g>
			<g>
				<path class="st2" d="M1790,2842.5c-71.9-44.2-123.5-124-101.1-252.4c27-154.9,2-194-32.2-191.6c-1.8,0.1-3.5,0.3-5.3,0.6
					c-20.3,3.6-43.1,19.9-59.9,34.4c-1.4-17.1-3.5-34.8-6-53.1c-0.8-5.4-1.6-10.9-2.4-16.2c48.7-48,142-121.7,215.4-84.1
					c81.3,41.5-11.1,190.1-43.7,339C1737.3,2698.9,1737,2778.9,1790,2842.5z"/>
			</g>
			<g>
				<path class="st1" d="M1801.8,2852.6l-13-8c-60.4-37.1-127.2-111.6-102.2-255c16.8-96.5,15.1-156.8-5.2-179.3
					c-6.4-7.1-14.3-10.1-24.4-9.4c-1.7,0.1-3.3,0.3-5,0.6c-20.2,3.6-43.1,20.4-58.7,33.9l-3.7,3.2l-0.4-4.9c-1.4-17-3.5-34.8-6-52.9
					c-0.8-5.4-1.6-10.8-2.4-16.1l-0.2-1.3l0.9-0.9c39.4-38.8,139.5-124.9,218.3-84.6c58.5,29.9,30.1,113.1-2.7,209.4
					c-14.6,42.9-29.8,87.3-39.7,132.4c-21.3,97.1-10.3,167.4,34.7,221.3L1801.8,2852.6z M1659.6,2395.8c10.2,0,18.8,3.8,25.4,11.2
					c21.3,23.7,23.5,85.4,6.4,183.5c-22.8,130.9,32.1,203.1,87.5,241.7c-38.3-53.5-46.7-121.9-26.6-213.7
					c9.9-45.4,25.1-89.9,39.8-132.9c32.1-94.1,59.8-175.4,5.2-203.3c-75.3-38.5-172.4,44.3-211.6,82.8c0.8,4.9,1.5,9.9,2.2,15
					c2.3,16.5,4.2,32.8,5.6,48.4c15.9-13.2,37.6-28.3,57.4-31.9c2-0.4,3.8-0.6,5.6-0.7C1657.6,2395.8,1658.6,2395.8,1659.6,2395.8z"
					/>
			</g>
		</g>
		<g class="st0">
			<g>
				<path class="st1" d="M1994.2,2884.7L1994.2,2884.7c-58.5,8.5-139.5-2.5-204.1-42.3l0,0c-71.9-44.2-123.5-124-101.1-252.4
					c16.6-95.5,13.5-147,0.7-171.9c-5.5-10.6,3.4-22.9,15.3-21.2c20.9,2.9,40.4,12.5,42.2,38c2.8,39-10.9,125.7,7.7,184.1
					c7.9,24.9,21.7,44.7,45.1,53.5c16.7,6.3,34.5,10.8,52.5,12.7c54.3,6,110.7-10.7,145.8-69.3c-2.1,63.4,12.1,126,62.1,191.5
					C2090.4,2846.8,2054.3,2876,1994.2,2884.7z"/>
			</g>
		</g>
		<g>
			<path class="st1" d="M1793.1,2857.3c-2.9,0-5.8-0.8-8.3-2.5c-59.3-39.6-124.8-117.3-99.5-262.4c24.8-142.4,1.4-167.8-6.3-172.2
				c-12.1-6.9-37,4.2-66.6,29.6l-22.3,19.2l-2.4-29.3c-1.4-16.4-3.4-34-5.9-52.2c-0.8-5.3-1.5-10.6-2.4-15.9
				c-1.3-8.2,4.2-15.9,12.4-17.2c8.1-1.3,15.9,4.2,17.2,12.4c0.9,5.4,1.7,10.9,2.5,16.4c1.3,9.1,2.4,18,3.4,26.7
				c31.9-22.1,58.4-27.4,78.9-15.8c35.1,19.9,41.8,84.6,21.1,203.4c-22.5,129.2,34.7,197.6,86.6,232.3c6.9,4.6,8.8,13.9,4.2,20.8
				C1802.7,2855,1797.9,2857.3,1793.1,2857.3z"/>
		</g>
		<g>
			<path class="st1" d="M1783,2847.8c-5.4,0-9.9-4.3-10.1-9.7c0-0.4,0-0.8,0-1.2c-73.6-102.8-26.1-241.8,12.1-353.7
				c35.8-104.9,55.4-170.3,9-194.1c-71.3-36.4-165.8,45.1-203.2,81.8c-4,3.9-10.4,3.9-14.4-0.1c-3.9-4-3.9-10.4,0.1-14.4
				c50.3-49.5,146.6-126.3,226.7-85.4c64.4,32.9,35,119,1,218.7c-39.1,114.6-83.5,244.6-11.9,339.2c2.6,3.5,3.1,8.1,1.3,12.1
				c-1.9,4-5.8,6.6-10.1,6.8C1783.3,2847.8,1783.1,2847.8,1783,2847.8z M1776,2841.2C1776,2841.2,1776,2841.2,1776,2841.2
				C1776,2841.2,1776,2841.2,1776,2841.2z"/>
		</g>
		<g>
			<g>
				<path class="st4" d="M1655.5,2439.3c-25.9,165.9-125.4,405.7-177.4,477.6c-63.9,88.3-213.7,75-263.8,49.6
					c-137.9-70.1-34.5-239.7-32.4-355.1c0,0-86,31.3-169.3,31.3c-83.2,0-156.3-30.9-156.3-30.9c0.2,11.9,1.5,24.3,3.5,37.2
					c17.3,112.1,87.8,255-35.9,317.9c-50.1,25.4-199.9,38.8-263.8-49.5c-34.6-47.7-90.1-169.7-131.1-294.8
					c-20.7-63.2-37.6-127.2-46.3-182.8c-41.5-266,36-538.8,109.5-722.7c54.4-136.1,106.5-223.5,106.5-223.5h744.1l-647.4-0.4h744.1
					c0,0,52.4,87.8,106.9,224.4C1619.8,1901.4,1697,2173.7,1655.5,2439.3z"/>
			</g>
			<g>
				<path class="st1" d="M723.5,2988.3c-59.7,0-127.3-17.1-165.3-69.5c-36.6-50.5-91.9-174.8-131.5-295.5
					c-22.3-68.1-38.3-131.4-46.4-183.2c-41.7-267.2,36.6-541.2,109.6-724c53.8-134.7,106.2-222.9,106.7-223.8l0.7-1.2h98.1v-0.4
					h745.5l0.7,1.2c0.5,0.9,53.1,89.5,107,224.7c72.9,182.6,151,456.2,109.3,723.1l-2.5-0.4l2.5,0.4
					c-26.5,169.5-126.1,407.2-177.8,478.6c-64.9,89.7-216.6,75.9-267,50.3c-99.8-50.7-75.8-151.1-52.6-248.1
					c9-37.8,17.6-73.5,18.8-105.6c-16.9,5.8-93.3,30.2-166.7,30.2c-72.4,0-138-23.6-153.7-29.7c0.4,10,1.5,20.9,3.4,33.1
					c3.6,23.1,9.3,47.1,15.4,72.5c23.2,97,47.2,197.3-52.6,248C804.2,2979.7,765.8,2988.3,723.5,2988.3z M600.2,1496.1
					c-6.5,11.1-55.4,96.2-105.6,221.9c-72.8,182.2-150.9,455.3-109.3,721.4c8.1,51.5,24,114.5,46.2,182.4
					c39.4,120.3,94.4,244,130.7,294.2c63.3,87.4,211.4,73.8,260.7,48.8c96.3-48.9,72.8-147.3,50-242.4
					c-6.1-25.5-11.9-49.6-15.5-72.9c-2.2-14-3.4-26.3-3.6-37.5l-0.1-3.8l3.5,1.5c0.7,0.3,73.6,30.7,155.3,30.7
					c81.8,0,167.6-30.8,168.4-31.1l3.4-1.2l-0.1,3.6c-0.6,33.6-9.6,70.8-19,110.3c-22.8,95.2-46.3,193.5,50,242.5
					c49.3,25,197.4,38.6,260.7-48.8c51.6-71.3,151.5-313.2,177-476.5l0,0c41.5-265.7-36.4-538.5-109-720.4
					c-50.4-126.2-99.5-211.7-106-222.8h-95.2v0.4H600.2z"/>
			</g>
		</g>
		<g>
			<path class="st6" d="M824,2966.8c-50.1,25.4-199.9,38.8-263.8-49.5c-34.6-47.7-90.1-169.7-131.1-294.8
				c62.1,19.3,216.3,55.8,430.8,26.5C877.2,2761,947.7,2904,824,2966.8z"/>
		</g>
		<g>
			<path class="st6" d="M1208,2966.8c50.1,25.4,199.9,38.8,263.8-49.5c34.6-47.7,90.1-169.7,131.1-294.8
				c-62.1,19.3-216.3,55.8-430.8,26.5C1154.8,2761,1084.3,2904,1208,2966.8z"/>
		</g>
		<g class="st0">
			<g>
				<path class="st1" d="M1655.5,2439.3c-25.9,165.9-125.4,405.7-177.4,477.6c-63.9,88.3-213.7,75-263.8,49.6
					c-137.9-70.1-34.5-239.7-32.4-355.1c0,0-86,31.3-169.3,31.3c-83.2,0-156.3-30.9-156.3-30.9c0.2,11.9,1.5,24.3,3.5,37.2
					c17.3,112.1,87.8,255-35.9,317.9c-50.1,25.4-199.9,38.8-263.8-49.5c-34.6-47.7-90.1-169.7-131.1-294.8
					c-20.7-63.2-37.6-127.2-46.3-182.8c-10.3-66.1-13.3-132.6-10.8-198c1.5,37.5,5,75.1,10.8,112.6c8.7,55.6,25.7,119.6,46.3,182.8
					c41,125.1,96.5,247.1,131.1,294.8c63.9,88.3,213.7,75,263.8,49.5c123.7-62.8-86.8-226.7-104.1-338.7
					c-2-12.9,209.6,36.6,292.8,36.6c83.3,0,304.8-36.6,304.8-36.6c-2.2,115.4-241.1,268.3-103.2,338.3
					c50.1,25.4,199.9,38.8,263.8-49.6c52-71.8,151.5-311.7,177.4-477.6c5.9-37.5,9.3-75,10.8-112.5
					C1668.8,2306.8,1665.9,2373.3,1655.5,2439.3z"/>
			</g>
		</g>
		<g>
			<path class="st1" d="M723.9,3002.6c-64.2,0-136.2-19.5-176.9-75.8c-52.5-72.5-153.6-313.3-180.3-484.6
				c-37.8-242.5,23.5-489.8,81.6-654.6c62.8-178.1,135.7-301.2,136.5-302.4l4.7-7.9h102.1c1.2-0.3,2.4-0.4,3.7-0.4h753.3l4.7,7.9
				c0.7,1.2,73.6,124.3,136.5,302.4c58.1,164.8,119.5,412.1,81.6,654.6c-26.7,171.4-127.8,412.1-180.3,484.6
				c-68.1,94.1-223.6,85.4-284.4,54.5c-109.5-55.6-83.1-166.1-59.7-263.6c7-29.3,13.7-57.4,16.8-83.1c-32,9.6-91.9,24.7-151.3,24.7
				c-57.1,0-109.1-13.8-138.3-23.3c3.1,25.4,9.8,53.2,16.7,82.2c23.3,97.5,49.8,207.9-59.7,263.6
				C806.9,2993.8,767.1,3002.6,723.9,3002.6z M608.2,1509.8c-36.3,64.4-274.9,507.7-209.4,927.4c25.2,161.5,123.6,400.3,174.5,470.6
				c57.8,79.9,198.5,67.3,243.3,44.6c86.6-44,65.4-132.9,42.8-227c-9.6-40.2-18.7-78.2-19.4-113.3l-0.5-25l23,9.7
				c0.7,0.3,71.3,29.6,150,29.6c79.4,0,162.9-30,163.7-30.3l22.3-8.1l-0.4,23.7c-0.7,35.1-9.8,73.1-19.4,113.3
				c-22.5,94.1-43.8,183,42.8,227c44.8,22.7,185.4,35.3,243.3-44.6c50.9-70.3,149.3-309,174.5-470.6c65.5-419.7-173-863-209.4-927.4
				h-83.5c-1.2,0.3-2.4,0.4-3.7,0.4H608.2z"/>
		</g>
		<g class="st7">
			<g>
				<g>
					<path class="st8" d="M1236,2062.8c0,2.7-0.2,5.6-1,8.4L1236,2062.8z"/>
				</g>
				<g>
					<path class="st1" d="M1237.4,2071.8l-4.9-0.9l1-8.4l5,0.3C1238.5,2065.9,1238.1,2069,1237.4,2071.8z"/>
				</g>
			</g>
		</g>
		<g>
			<g>
				<path class="st4" d="M1411.7,1826.1c0,0-45.2,107.2-237.7,201.6c-223.4,109.6-110.8,260.5,20,266.7
					c236.7,11.2,304.2-146.3,304.2-146.3"/>
			</g>
			<g>
				<path class="st1" d="M1217.5,2297.4c-7.7,0-15.6-0.2-23.6-0.6c-72.3-3.4-135.8-49-147.6-106.1c-7.2-35-0.4-103,126.7-165.3
					c189.3-92.8,236.1-199.3,236.5-200.3l4.6,1.9c-0.5,1.1-47.8,109.1-239,202.9c-124.1,60.9-130.9,126.3-124,159.8
					c11.4,54.9,72.8,98.8,143,102.1c8,0.4,15.8,0.6,23.4,0.6c213.4,0,277.7-143.8,278.4-145.3l4.6,2
					C1499.8,2150.6,1434.2,2297.4,1217.5,2297.4z"/>
			</g>
		</g>
		<g class="st0">
			<g>
				<path class="st1" d="M838.6,2363.5c-125.6,5.9-203.5-35.6-249-75.9c-40.3-35.7-55.2-114.8-55.2-114.8l86.4-277.6
					c0,0,34.8,82.6,173.7,166.7c19.3,11.7,40.6,23.4,64.1,34.9C1082,2206.4,969.4,2357.3,838.6,2363.5z"/>
			</g>
		</g>
		<g class="st0">
			<g>
				<path class="st1" d="M1185.7,2363.5c125.6,5.9,203.5-35.6,249-75.9c40.3-35.7,55.2-114.8,55.2-114.8l-86.4-277.6
					c0,0-34.8,82.6-173.7,166.7c-19.3,11.7-40.6,23.4-64.1,34.9C942.3,2206.4,1054.9,2357.3,1185.7,2363.5z"/>
			</g>
		</g>
		<g>
			<path class="st4" d="M838.6,2294.4c-125.6,5.9-203.5-35.6-249-75.9c-40.3-35.7-55.2-70.4-55.2-70.4l86.4-322
				c0,0,34.8,82.6,173.7,166.7c19.3,11.7,40.6,23.4,64.1,34.9C1082,2137.3,969.4,2288.2,838.6,2294.4z"/>
		</g>
		<g>
			<path class="st6" d="M838.6,2294.4c-125.6,5.9-203.5-35.6-249-75.9c10.7-73.3,51.1-214,204.9-225.7
				c19.3,11.7,40.6,23.4,64.1,34.9C1082,2137.3,969.4,2288.2,838.6,2294.4z"/>
		</g>
		<g class="st9">
			<path class="st4" d="M982.3,2196.7c-10.8-39.4-46.4-84.7-123.8-118.5c-121.5-53.2-161.9-103-196.5-142.3
				c-26.7-30.3-41.2-69.5-41.2-109.9v0c0,0,45.2,107.2,237.7,201.6C968.1,2081.4,996.9,2145.1,982.3,2196.7z"/>
		</g>
		<g class="st7">
			<path class="st1" d="M838.6,2294.4c-236.7,11.2-304.2-146.3-304.2-146.3l0,0c6-22.2,33.4-30.1,50.2-14.4
				c44.7,41.7,123.7,86.6,254,80.4c60.4-2.9,117-36.6,138.3-82.9C1013.7,2213.9,930.7,2290,838.6,2294.4z"/>
		</g>
		<g>
			<path class="st1" d="M625.8,1824c16.7,15.2,31.4,31,46.1,46.9c14.9,15.7,30,31.4,46.3,46.1c16,15,33.9,28,51.9,40.6
				c9,6.3,18.5,12,27.8,18.1c9.4,5.9,19.1,11.2,28.7,16.8c19.5,10.8,38.9,20.3,60,31.5c20.5,11.5,40.4,24.5,58.6,40.5
				c2.3,2,4.6,3.9,6.8,6l6.5,6.5c4.4,4.2,8.3,9.1,12.3,13.8c2.1,2.3,3.9,4.9,5.6,7.4l5.4,7.7l4.7,8.3l2.3,4.2l2,4.4
				c11,23.1,14.7,51.5,7.4,77.1c-3.5,12.7-8.9,24.8-16.1,35.5c-7.2,10.7-15.7,20.2-25,28.6c-9.5,8.2-19.7,15.4-30.4,21.6
				c-10.9,5.9-22.1,11.1-33.8,15c-11.7,3.7-23.7,6.9-35.9,8.4c-3,0.5-6.1,0.8-9.2,1c-3.1,0.2-6.2,0.6-9.2,0.7l-17.5,0.5
				c-23.4,0.2-46.8-1.1-70.2-4.4c-46.6-6.5-92.7-21.8-133.3-47.2c-20.2-12.8-38.9-27.9-56.4-44.5c-8.6-8.5-16.1-18.1-22-28.7
				c-5.7-10.8-10-22.4-9.7-36.1c0.1-3.3,2.8-5.9,6.1-5.8c1.2,0,2.3,0.4,3.2,1.1l0.6,0.4c19.6,13.7,32.3,29.6,46.8,45.2
				c7.1,7.9,14.4,15.6,22.6,22.3c8.3,6.7,17,12.8,26,18.6c36.2,22.6,77.8,36.5,120.7,42.5c21.5,3.1,43.3,4.2,65.1,4.1l16.4-0.4
				c2.7-0.1,5.1-0.4,7.7-0.6c2.6-0.2,5.1-0.4,7.7-0.9c10.2-1.2,20.2-3.9,30-7c9.8-3.3,19.1-7.6,28.2-12.4c8.9-5.1,17.2-11,24.8-17.6
				c7.4-6.8,14-14.2,19.5-22.3c5.5-8.1,9.3-16.9,11.8-25.9c2.5-9,3.4-18.4,2.2-27.7c-1.1-9.3-3.4-18.6-7.7-27.3l-1.5-3.3l-1.8-3.2
				l-3.7-6.5l-4.4-6.2c-1.4-2.1-2.8-4.1-4.6-6.1c-3.3-3.9-6.4-7.9-10.3-11.5l-5.5-5.5c-1.8-1.8-3.9-3.5-5.9-5.2
				c-15.8-13.9-33.9-25.8-52.9-36.4c-18.8-10-40.1-20.5-60.1-31.5c-10-5.8-20.1-11.4-29.9-17.5c-9.7-6.3-19.6-12.3-29.1-18.9
				l-14.2-10.1l-7.1-5l-6.9-5.4l-13.8-10.6c-4.6-3.5-9-7.4-13.6-11c-9.2-7.2-17.7-15.3-26.3-23.2c-4.1-4.2-8.2-8.5-12.2-12.8
				c-4-4.3-7.7-8.9-11.4-13.5c-14.6-18.5-27.4-39.2-30.4-64.7c-0.4-3.1,1.8-5.9,4.9-6.2c1.7-0.2,3.3,0.4,4.4,1.4L625.8,1824z"/>
		</g>
		<g>
			<g>
				<g>
					<path class="st5" d="M1347.4,1615.3c0,0,113.9,47.2,238.5,27.9c124.6-19.3,246.8-66.8,250.5-90.9c0,0-159.5,13.6-264.9-70.2
						c0,0-55.1-50.6-59.3-37.4C1508,1458,1399.9,1598.8,1347.4,1615.3z"/>
				</g>
				<g>
					<path class="st1" d="M1524.5,1650.3c-97.8,0-177.1-32.3-178.1-32.7l-6.4-2.6l6.6-2.1c52.1-16.3,159.7-157.9,163.2-168.9
						c0.6-1.9,2-3.2,3.8-3.7c11.8-3.2,51.6,32.8,59.5,40c103.3,82.1,261.4,69.7,263,69.6l3.2-0.3l-0.5,3.1
						c-4.1,27.3-131.6,74.3-252.6,93C1565.2,1648.9,1544.5,1650.3,1524.5,1650.3z M1354.4,1615.3c25.1,9.2,124.8,41.9,231.2,25.5
						c126.5-19.6,234.5-63.9,247.2-85.7c-25.1,1.4-166.9,5.2-262.8-71c-22.3-20.5-48.9-40.6-54.9-39c-0.2,0-0.3,0.1-0.4,0.4
						C1509.9,1460.5,1409,1590.7,1354.4,1615.3z"/>
				</g>
			</g>
			<g class="st0">
				<g>
					<path class="st10" d="M1347.4,1615.3c0,0,113.9,47.2,238.5,27.9c124.6-19.3,246.8-66.8,250.5-90.9c0,0-159.5,13.6-264.9-70.2
						c0,0-55.1-50.6-59.3-37.4C1508,1458,1399.9,1598.8,1347.4,1615.3z"/>
				</g>
				<g>
					<path class="st1" d="M1524.5,1650.3c-97.8,0-177.1-32.3-178.1-32.7l-6.4-2.6l6.6-2.1c52.1-16.3,159.7-157.9,163.2-168.9
						c0.6-1.9,2-3.2,3.8-3.7c11.8-3.2,51.6,32.8,59.5,40c103.3,82.1,261.4,69.7,263,69.6l3.2-0.3l-0.5,3.1
						c-4.1,27.3-131.6,74.3-252.6,93C1565.2,1648.9,1544.5,1650.3,1524.5,1650.3z M1354.4,1615.3c25.1,9.2,124.8,41.9,231.2,25.5
						c126.5-19.6,234.5-63.9,247.2-85.7c-25.1,1.4-166.9,5.2-262.8-71c-22.3-20.5-48.9-40.6-54.9-39c-0.2,0-0.3,0.1-0.4,0.4
						C1509.9,1460.5,1409,1590.7,1354.4,1615.3z"/>
				</g>
			</g>
			<g>
				<g>
					<path class="st2" d="M1973.8,1419.8c-53.5,83-101.3,129.4-169,128c-67.8-1.4-218.2,3-279.4-120.2c0,0,15.7-47.4,32.4-101.4
						c19.5-62.7,40.3-134.3,39.7-150.8c0,0,22.9,47,70.2,91.6c14.8,14.1,32,27.8,51.7,39.8c24.7,15.1,52.8,29,82.2,39.2
						c12.1,4.2,24.5,7.9,36.9,10.6c49.4,11.2,100.1,9.8,142.6-15.2c7.2-4.2,14.2-9.1,20.9-14.7c0,0,1.2,0.5,2.6,2.2
						C2009.4,1334.9,2015.4,1355.3,1973.8,1419.8z"/>
				</g>
				<g>
					<path class="st1" d="M1807.8,1550.4c-1,0-2,0-3,0c-3.5-0.1-7.3-0.1-11.2-0.2c-74-1.1-211.7-3.2-270.4-121.4l-0.5-0.9l0.3-1
						c0.2-0.5,15.9-48,32.4-101.3c26.4-85.1,40.1-136.9,39.6-150l-0.4-11.8l5.2,10.6c0.2,0.5,23.3,47.2,69.6,90.9
						c16.2,15.4,33.5,28.7,51.3,39.5c26.2,16,54.5,29.5,81.7,39c12.5,4.4,24.8,7.9,36.6,10.6c55.3,12.5,102.7,7.5,140.8-14.9
						c7.1-4.1,14-9,20.5-14.5l1.2-1l1.4,0.6c0.3,0.1,1.9,0.9,3.6,3c6.2,7.6,10.4,29.9-30.7,93.7l0,0
						C1925.9,1498.7,1878.1,1550.4,1807.8,1550.4z M1528.1,1427.4c57.5,114.6,192.8,116.6,265.5,117.7c4,0.1,7.7,0.1,11.2,0.2
						c69.6,1.5,117.1-49.7,166.8-126.9c42-65.2,34.3-83.7,31-87.8c-0.2-0.2-0.4-0.4-0.6-0.6c-6.3,5.2-12.9,9.8-19.7,13.7
						c-39.2,23.1-87.8,28.3-144.4,15.5c-12-2.7-24.5-6.3-37.2-10.7c-27.5-9.6-56.1-23.2-82.7-39.4c-18.1-11-35.7-24.6-52.1-40.2
						c-35.9-33.9-58.1-69.7-66.6-84.8c-3.1,21.2-16.2,69.1-39.1,142.9C1545,1376.2,1530.5,1420.4,1528.1,1427.4z"/>
				</g>
			</g>
			<g>
				<g>
					<path class="st5" d="M2004.6,1329.1c-6.9,4.7-14.8,8.9-23.5,12.5c-35.6,15-84.4,20.6-136.1,13.5c-14.4-1.9-28.9-4.9-43.4-8.9
						c-14.9-4.1-29.9-9.3-44.6-15.7c-37.3-16.3-66.6-39.1-89.3-63.3c-55.4-58.8-72.2-125.5-72.2-125.5L1585.1,812
						c0,0,129.8,192.2,165.5,235.1c35.7,42.9,131,55.1,211.4,71.6c57.5,11.8,73.9,51.7,76.7,100c1.1,19.2,0.1,39.8-1.4,60.5
						C2036,1299,2024,1316,2004.6,1329.1z"/>
				</g>
				<g>
					<path class="st1" d="M1888.9,1360.6c-14.5,0-29.3-1-44.2-3.1c-14.6-2-29.3-5-43.7-9c-15.5-4.3-30.6-9.6-44.9-15.9
						c-33.8-14.8-64.2-36.3-90.1-63.9c-55.2-58.5-72.7-125.9-72.8-126.6l-0.1-0.5l-10.7-338.3l4.8,7.2
						c1.3,1.9,130.2,192.5,165.4,234.9c30,36,103.4,50.1,174.4,63.7c12,2.3,24,4.6,35.6,7c66,13.6,76.5,64.9,78.7,102.4
						c1.2,19.9,0,41-1.4,60.8c-1.4,19.8-13,37.7-33.8,51.8l0,0c-7.1,4.8-15.1,9.1-23.9,12.8
						C1956,1354.9,1923.4,1360.6,1888.9,1360.6z M1598,1141.3c1.2,4.5,19,68.4,71.6,124.1c25.5,27.1,55.3,48.2,88.5,62.7
						c14.1,6.2,29,11.4,44.2,15.6c14.2,3.9,28.7,6.9,43.1,8.9c49.4,6.8,98.5,1.9,134.8-13.3c8.5-3.6,16.3-7.7,23.1-12.3l0,0
						c19.4-13.2,30.4-29.8,31.6-48c1.4-19.7,2.5-40.6,1.4-60.1c-3.3-57.7-26.4-87.8-74.7-97.7c-11.6-2.4-23.5-4.7-35.6-7
						c-71.9-13.8-146.2-28-177.3-65.5c-31.4-37.9-136.9-192.9-160.8-228.2L1598,1141.3z"/>
				</g>
			</g>
			<g>
				<g>
					<path class="st2" d="M1585.1,507.4c0,0,69.3,88.8,94.3,197.6c25.1,108.8,52.5,301.6,161.5,359.1c109,57.5,138.9,62,138.9,62
						s-150-8.5-234.3-83c-84.3-74.4-139.4-154.6-163.1-272.4c-23.7-117.8-56.1-238.7-47.5-244.6
						C1543.5,520.2,1585.1,507.4,1585.1,507.4z"/>
				</g>
				<g>
					<path class="st1" d="M1979.7,1128.6c-1.5-0.1-151.8-9.4-235.8-83.6c-92.7-81.9-141.8-163.8-163.9-273.7
						c-8.2-40.5-17.4-81.5-25.5-117.8c-21.2-94.2-27.4-125-20.9-129.4c8.8-6,49.2-18.5,50.9-19.1l1.6-0.5l1.1,1.4
						c0.7,0.9,69.9,90.4,94.8,198.5c3.1,13.4,6.2,28.1,9.5,43.6c23.7,111.4,56.1,263.9,150.7,313.8
						c106.9,56.4,137.8,61.7,138.1,61.8L1979.7,1128.6z M1584.2,510.3c-14.7,4.6-41.6,13.6-47.9,17.9c-3.6,5.6,9.9,65.9,23,124.2
						c8.1,36.3,17.4,77.4,25.5,117.9c21.9,108.8,70.5,189.9,162.3,271c62.5,55.2,162.8,74,208.6,79.9c-20.5-7.7-56.4-23.4-116-54.8
						c-96.6-51-129.4-204.9-153.3-317.2c-3.3-15.5-6.4-30.2-9.5-43.6C1654.1,605.8,1592.9,521.9,1584.2,510.3z"/>
				</g>
			</g>
			<g>
				<path class="st1" d="M1528,1660.5c-91.5,0-190.3-18.4-307.9-48c-21.2-5.3-37.4-18.8-48.2-39.9
					c-58.4-115.1,65.6-459.9,144.7-655.2c63.8-157.4,123.6-348.7,126-389.1c0.5-8.3,7.7-14.5,15.9-14.1c8.3,0.5,14.6,7.6,14.1,15.9
					c-2.9,48.7-66.4,246.1-128.2,398.5c-131.4,324.3-184.5,554.1-145.8,630.4c6.7,13.3,16.1,21.2,28.7,24.4
					c255.7,64.3,411.1,74.7,602.6-40.3c112.6-67.7,212.1-237.7,197.1-336.9c-5.6-36.9-26.7-60.1-62.7-68.9
					c-151.7-37.1-246.7-148.1-274.8-321c-35.9-220.5-145.7-345.3-146.8-346.6c-5.5-6.2-5-15.6,1.2-21.2c6.2-5.5,15.6-5,21.2,1.1
					c4.8,5.3,116.7,132.1,154.1,361.8c26.4,162.4,111.3,262.2,252.4,296.7c48.2,11.8,77.7,44.2,85.2,93.6
					c16.8,111.1-87.8,292.9-211.3,367.1C1736.9,1634,1637.7,1660.5,1528,1660.5z"/>
			</g>
			<g>
				<path class="st1" d="M1947,1127c-0.2,0-0.3,0-0.5,0c-138.9-6.8-250.2-82.3-321.8-218.4c-53.6-101.9-66-200.2-66.5-204.4
					c-0.7-5.6,3.3-10.6,8.9-11.3c5.5-0.6,10.6,3.3,11.3,8.9c0.1,1,12.6,99.2,64.6,197.9c69,130.9,171.5,200.6,304.5,207.1
					c5.6,0.3,9.9,5,9.7,10.6C1956.9,1122.8,1952.4,1127,1947,1127z"/>
			</g>
			<g>
				<path class="st1" d="M1871.4,1369.2c-27.1,0-53.5-4.3-79.3-12.8c-137.3-45.5-205.4-194.9-208.2-201.2c-2.3-5.1,0-11.1,5.1-13.4
					c5.1-2.3,11.1,0,13.4,5.1c0.7,1.5,67.4,147.6,196.2,190.3c69.3,22.9,144.5,12.1,223.6-32.2c4.9-2.7,11.1-1,13.8,3.9
					c2.7,4.9,1,11.1-3.9,13.8C1976.9,1353.7,1923.1,1369.2,1871.4,1369.2z"/>
			</g>
			<g>
				<path class="st1" d="M1780.8,1558.6c-95.9,0-158.6-27.7-196.6-53.9c-52.2-36.1-70.2-77-71-78.7c-2.2-5.2,0.2-11.1,5.3-13.4
					c5.1-2.2,11.1,0.1,13.3,5.3c0.3,0.6,17.2,38.1,65,70.8c63.7,43.6,153.5,58.8,259.5,44.1c5.5-0.7,10.7,3.1,11.5,8.7
					c0.8,5.6-3.1,10.7-8.7,11.5C1830.9,1556.8,1804.8,1558.6,1780.8,1558.6z"/>
			</g>
			<g class="st0">
				<g>
					<path class="st10" d="M1973.8,1419.8c-53.5,83-101.3,129.4-169,128c-67.8-1.4-218.2,3-279.4-120.2c0,0,15.7-47.4,32.4-101.4
						c53,22.5,95.9,31.3,156.3,36.6c45.5,4,89.4,2.9,124.3-6.1c2.2-0.5,4.4-1.1,6.5-1.7c107.2-29.3,165.3-92.9,193.7-136.4
						c1.1,19.2,0.1,39.8-1.4,60.5c-1.4,19.8-13.4,36.8-32.7,49.9C2009.4,1334.9,2015.4,1355.3,1973.8,1419.8z"/>
				</g>
				<g>
					<path class="st1" d="M1807.8,1550.4c-1,0-2,0-3,0c-3.5-0.1-7.3-0.1-11.2-0.2c-74-1.1-211.7-3.2-270.4-121.4l-0.5-0.9l0.3-1
						c0.2-0.5,15.9-48,32.4-101.3l0.8-2.6l2.5,1.1c49.2,20.8,91.3,30.7,155.6,36.4c48.6,4.3,91.3,2.2,123.5-6
						c2.2-0.5,4.3-1.1,6.5-1.7c104.5-28.6,162.2-89.4,192.3-135.4l4.2-6.4l0.4,7.6c1.2,19.9,0,41-1.4,60.8
						c-1.3,19.2-12.3,36.6-31.8,50.4c5.1,9.4,5.5,33-32.2,91.5l0,0C1925.9,1498.7,1878.1,1550.4,1807.8,1550.4z M1528.1,1427.4
						c57.5,114.6,192.8,116.6,265.5,117.7c4,0.1,7.7,0.1,11.2,0.2c69.6,1.5,117.1-49.7,166.8-126.9l0,0c42-65.2,34.3-83.7,31-87.8
						l-1.7-2.1l2.3-1.5c19.4-13.2,30.4-29.8,31.6-48c1.2-17.1,2.2-35.2,1.7-52.6c-31.6,45.8-89.6,103.4-190.8,131.1
						c-2.1,0.6-4.3,1.2-6.6,1.7c-32.7,8.4-76,10.5-125.2,6.1c-63.7-5.7-105.9-15.4-154.5-35.7
						C1544.5,1377.7,1530.4,1420.5,1528.1,1427.4z"/>
				</g>
			</g>
		</g>
		<g>
			<g>
				<g>
					<path class="st5" d="M513.2,935.2c-47.2-82.6-46.1-193.5-43.3-239.4c17.3-76.8,50.2-165.7,55.5-176.3c0,0,36.2,14.7,42.2,34.8
						C573.6,574.4,516.5,838,513.2,935.2z"/>
				</g>
				<g>
					<path class="st1" d="M515.4,944.1l-4.4-7.7c-47.7-83.6-46.4-196.3-43.6-240.8c17.8-79.4,50.8-167.5,55.7-177.2l1-2.1l2.1,0.9
						c1.5,0.6,37.3,15.4,43.6,36.4c2.8,9.3-5.8,59.9-20,141.7c-14.5,83.4-32.5,187.3-34.3,240L515.4,944.1z M526.7,522.7
						c-7.2,16.6-37.8,100.5-54.3,173.5c-2.6,42.4-4,148.4,38.8,229.9c3.3-55.2,20.2-152.6,33.9-231.7
						c11.7-67.3,22.7-130.8,20.1-139.4C560.4,539,534.4,526.2,526.7,522.7z"/>
				</g>
			</g>
			<g>
				<g>
					<path class="st11" d="M689.6,1602.2c0,0-33.1,5.3-78.4-22.5c-10.9-6.7-22.6-15.3-34.7-26.4c-0.2-0.2-0.5-0.4-0.7-0.7
						c-13.4-12.4-27.6-26.4-41.6-43.1c-0.4-0.4-0.8-0.9-1.2-1.4c-50.2-60.7-99.1-157.5-112.4-345.1c-4.1-56.8-2.1-118.9,3.4-181.1
						c-2.5,33.8-4,68.3-4.2,102.8c0,0,0,0,0,0.1c0.6,4.7,22.2,167.3,115.6,242.3C558.8,1447.3,604,1558.4,689.6,1602.2z"/>
				</g>
				<g>
					<path class="st1" d="M682.2,1604.7c-12.5,0-38.9-2.9-72.1-23.2c-11.8-7.2-23.6-16.1-35-26.6l-0.8-0.7
						c-10.4-9.6-26.1-24.5-41.7-43.3c-0.4-0.4-0.8-0.9-1.2-1.5c-65.8-79.5-101.7-189.5-112.8-346.2c-3.8-52.6-2.6-113.6,3.4-181.4
						l4.1,0.3c-2.6,35.2-4,69.8-4.2,102.6c0.9,6.6,22.5,166.6,114.8,240.8l0.6,0.5l0.1,0.7c28,143.9,79.6,235.9,153.1,273.6l5.5,2.8
						l-6.1,1C689.5,1604.3,686.8,1604.7,682.2,1604.7z M420.5,1102c0.1,21.4,0.8,41.7,2.1,60.9c11.1,155.8,46.6,265,111.9,343.9
						c0.4,0.5,0.8,1,1.1,1.4c15.5,18.6,31.1,33.4,41.4,43l0.8,0.7c11.2,10.3,22.8,19.1,34.3,26.1c32,19.6,58,22.5,70,22.6
						c-71.2-40.2-121.2-131.7-148.7-272.3C457,1266.3,428.7,1146.5,420.5,1102z"/>
				</g>
			</g>
			<g>
				<g>
					<path class="st12" d="M535.4,1327.2c-93.4-75-114.9-237.6-115.6-242.3c0,0,0-0.1,0-0.1c0.2-34.5,1.7-69,4.2-102.8
						c0.1-0.3,0.1-0.7,0.1-1c9.2-102.9,26.2-210.8,44-290.1c-2.9,46-2,161.7,45.1,244.3C511.4,990.7,504.1,1167.1,535.4,1327.2z"/>
				</g>
				<g>
					<path class="st1" d="M538.4,1332.2l-4.3-3.5c-93.6-75.2-115.4-236.8-116.3-243.6c0.2-33.3,1.6-68,4.2-103.3
						c0.1-0.4,0.1-0.7,0.1-0.9c8.7-97.6,25.2-206.2,44.1-290.5l4,0.6c-1.6,24.8-6.7,152.9,44.8,243.2l0.3,0.5l-0.2,6.6
						c-2.2,63.2-7.9,231,22.3,385.5L538.4,1332.2z M465.2,713.8c-16.8,80.4-31.2,178.5-39.1,267.3c0,0.3,0,0.7-0.1,1.2
						c-2.6,35-4,69.6-4.2,102.5c0.9,6.5,21.8,161.6,110.5,237.2c-29.1-153.4-23.5-318.3-21.3-380.9l0.2-5.4
						C468.8,861,464.5,761.3,465.2,713.8z"/>
				</g>
			</g>
			<g>
				<path class="st1" d="M556.8,1362.6l-30.3-24.4c-97.4-78.2-119.8-244.5-120.8-251.6l-0.1-1.2l0-0.7c0.2-33.2,1.6-68.1,4.2-103.7
					l0.1-1.2c8.9-99.4,24.7-204.3,43.4-287.9l28.1,4c-1.5,23.3-6.2,144.1,44.2,232.3l2,3.5l-0.3,10.1
					c-2.1,62.8-7.8,229.6,22.1,382.8L556.8,1362.6z M434,1083.9c1.4,10.5,18.2,125.7,79.6,201.4c-21.8-142.8-16.9-286.9-14.9-344.6
					l0.1-2c-21.6-39.2-33.4-83.6-39.8-124c-8.6,54.2-15.8,111.6-20.8,167.2c0,0.5-0.1,1-0.1,1.6
					C435.6,1017.9,434.2,1051.7,434,1083.9z"/>
			</g>
			<g>
				<path class="st1" d="M730.2,1645.3c-1.1,0-2.3-0.1-3.4-0.4c-45.8-11.3-87.3-29.2-123.5-53.3c-12.5-8.3-24.7-17.6-36.1-27.5
					l-0.7-0.7c0,0,0,0-0.1-0.1c0,0-0.1-0.1-0.1-0.1c-15.3-13.3-29.8-28.3-43-44.6c-0.5-0.6-1-1.1-1.4-1.7
					c-78.1-97-117.3-242.4-116.3-432.2c0-7.8,6.4-14.2,14.2-14.2c0,0,0,0,0.1,0c7.9,0,14.2,6.4,14.2,14.3
					c-1,183,36.1,322.4,110.1,414.2c0.3,0.4,0.5,0.7,0.8,1l0.4,0.4c12.3,15.1,25.7,29,39.9,41.4l0.7,0.7c0,0,0,0,0.1,0.1
					c0,0,0.1,0,0.1,0.1c10.5,9.1,21.6,17.5,33.1,25.2c33.4,22.2,71.9,38.8,114.5,49.3c7.6,1.9,12.3,9.6,10.4,17.2
					C742.4,1640.9,736.6,1645.3,730.2,1645.3z"/>
			</g>
			<g>
				<path class="st1" d="M424.1,995.2c-0.4,0-0.7,0-1.1,0c-7.8-0.6-13.7-7.4-13.1-15.3c9-120.6,30.7-232.8,47.5-306.4l0-0.1l0.5-2.3
					c17.8-77.7,52.6-158.9,54.1-162.4c3.1-7.2,11.5-10.5,18.7-7.4c7.2,3.1,10.5,11.5,7.4,18.7c-0.3,0.8-35.1,81.9-52.3,156.8
					l-0.1,0.4C469,750.3,447.3,862,438.3,982C437.7,989.5,431.5,995.2,424.1,995.2z"/>
			</g>
		</g>
		<g>
			<g>
				<path class="st4" d="M1567,1609.6c-140.8,137.7-416.4,162.4-697.3,147.4c-360-19.3-509.5-250.5-531.6-320
					c-48.1-150.9,65.7-484.3,102.2-527.3c24.1-28.3,61.7-125,84.6-187.7c11.9-32.5,19.7-55.8,19.7-55.8
					c72.1,73.1,310,108.8,424.6,97.3c562.7-56.7,450-270.4,448.2-333.3c-0.8-28.1-12.5-46.4-16.5-65.6c-5.1-23.7,1.6-48.6,54.7-94.7
					c35-30.4,69.8-44.2,100.7-43.8c54,0.7,96,45.1,106.1,121c16,119.3-105.6,206.1-105.6,206.1c0,0,0,0,0,0
					c2.3,4.9,148.7,315.9,158.1,622.4C1722.2,1411.2,1624.5,1553.3,1567,1609.6z"/>
			</g>
			<g>
				<path class="st1" d="M1008.5,1762.9c-44,0-90.3-1.3-139-3.9c-193.5-10.4-320.9-82.8-393.7-141.6
					c-87.8-71-129.2-146.4-139.8-179.8c-48.6-152.5,67.3-487.7,102.6-529.2c24.3-28.6,63.2-129.5,84.2-187.1
					c11.7-32.1,19.6-55.5,19.7-55.7l1.1-3.1l2.3,2.4c71.2,72.3,305.7,108.5,422.9,96.7c224.1-22.6,367.2-73.2,425.5-150.5
					c42.3-56.2,31.8-114.7,24.8-153.4c-1.9-10.7-3.6-20-3.8-27.4c-0.5-17.8-5.5-31.9-10-44.3c-2.6-7.2-5-13.9-6.4-20.9
					c-5.3-24.6,2.1-50.4,55.4-96.6c33.4-29,68.2-44.3,100.6-44.3c0.5,0,0.9,0,1.4,0c56.7,0.8,98.1,47.8,108.1,122.7
					c15,112.2-91.7,196.9-105.1,207c12.3,26.5,148.6,328.1,157.6,621.7c8.1,261.5-111.6,399.5-148.5,435.5l0,0
					C1464.3,1712.9,1280.5,1762.9,1008.5,1762.9z M545.4,669.9c-2.5,7.4-9.4,27.4-18.7,52.7c-25.8,70.7-61.5,160.7-84.9,188.4
					c-35,41.2-150.1,373.9-101.8,525.3c10.5,32.9,51.4,107.5,138.5,177.9c72.3,58.5,198.9,130.4,391.3,140.7
					c348.1,18.7,575.7-29.3,695.8-146.8l0,0c36.6-35.8,155.3-172.7,147.3-432.5c-9.1-295.5-147.5-599.2-157.5-620.6l-4.1-0.5l4.2-3
					c1.2-0.9,120.4-87.5,104.8-204.2c-9.7-72.8-49.6-118.5-104.2-119.2c-31.7-0.5-66.2,14.6-99.3,43.3c-51.7,44.9-59,69.6-54,92.7
					c1.4,6.7,3.8,13.3,6.3,20.3c4.6,12.7,9.7,27.2,10.2,45.6c0.2,7,1.9,16.2,3.8,26.7c7.1,39.4,17.9,99-25.5,156.5
					c-58.9,78.2-203,129.4-428.3,152.1C852.5,777.2,620.1,741.4,545.4,669.9z"/>
			</g>
		</g>
		<g class="st0">
			<g>
				<path class="st1" d="M1546.4,1717.5c-109.5,91.1-285,126.1-478.8,131.9c-64.5,1.9-131.1,0.6-197.9-3
					c-126.5-6.8-227.1-39.8-305.2-82.7c-26.6-14.6-50.6-30.4-72.2-46.7c54.4-136.1,106.5-223.5,106.5-223.5h744.1l-647.4-0.4h744.1
					C1439.5,1493.1,1491.9,1581,1546.4,1717.5z"/>
			</g>
		</g>
		<g>
			<g>
				<path class="st4" d="M1690.4,1388.3c-5.8,20.5-12.3,39.7-19.4,57.5c-2.4,6-4.8,12-7.3,17.7c-22.2,51.1-48.4,90.6-72,119.1l0,0.1
					c-8.7,10.5-17,19.5-24.7,26.9c-107.3,105-292.9,144.3-499.4,150.4c-64.5,1.9-131.1,0.6-197.9-3
					c-126.5-6.8-227.1-39.8-305.2-82.7c-121.8-66.9-189.2-158.1-215.8-211.9c-4.9-9.9-8.4-18.5-10.6-25.4
					c-11.7-36.7-13.8-84.2-9.8-135.7c12.5-160.2,84.4-359,112-391.5c24.1-28.3,61.7-125,84.6-187.7c11.9-32.5,19.7-55.8,19.7-55.8
					c72.1,73.1,310.1,108.8,424.6,97.3c562.6-56.7,450-270.4,448.2-333.3c-0.8-28.1-12.5-46.4-16.5-65.6
					c-5.1-23.7,1.6-48.5,54.7-94.7c35-30.4,69.8-44.2,100.7-43.8c54,0.8,96,45.1,106.2,121c15.9,119.3-105.6,206.1-105.6,206.1
					c0,0,0,0,0,0c2.3,4.9,148.7,315.9,158.1,622.4C1717.4,1257.8,1707.2,1328.6,1690.4,1388.3z"/>
			</g>
			<g>
				<path class="st1" d="M1007.5,1763.3c-43.7,0-89.9-1.3-137.9-3.9c-114.2-6.1-217.2-34.1-306.3-83
					c-142.3-78.2-201.9-182.8-216.8-213c-4.7-9.5-8.4-18.4-10.8-25.8c-11-34.4-14.3-80.4-9.9-136.7c12.9-165.6,85.7-361.3,112.6-393
					c24.2-28.4,63.1-129.3,84.2-186.9c11.7-32.1,19.6-55.5,19.7-55.7l1.3-3.8l2.9,2.9c71.1,72.1,305.3,108.3,422.6,96.6
					c223.9-22.6,367-73.1,425.1-150.3c42.2-56,31.7-114.4,24.7-153c-1.9-10.8-3.6-20-3.8-27.4c-0.5-17.7-5.3-31.2-10-44.2
					c-2.6-7.2-5-13.9-6.5-20.9c-5.3-24.7,2.1-50.7,55.5-97.1c34-29.5,69.2-44.9,102.3-44.4c56.9,0.8,98.5,48,108.6,123.1
					c14.9,111.7-90.3,196-105,207.2c13.2,28.6,148.5,328.5,157.5,621.6c2.3,75.5-5.9,147.3-24.6,213.5l0,0
					c-5.5,19.5-12.1,39-19.5,57.8c-2.5,6.3-5,12.3-7.4,17.8c-19.3,44.5-44.4,85.9-72.3,119.6c-8.5,10.2-16.8,19.3-24.9,27.2
					c-95.3,93.2-263.9,144.1-501.1,151.1C1048.1,1763,1028.1,1763.3,1007.5,1763.3z M545.6,670.7c-2.7,7.9-9.5,27.4-18.5,52.1
					c-25.8,70.8-61.6,160.9-85,188.5c-25.9,30.4-98.8,228.4-111.4,390.1c-4.3,55.6-1.1,101,9.7,134.8c2.3,7.1,5.9,15.8,10.5,25.1
					c14.7,29.9,73.8,133.3,214.7,210.8c88.4,48.6,190.8,76.3,304.2,82.4c70.5,3.8,137,4.8,197.7,3c235.9-7,403.4-57.3,497.8-149.7
					c7.9-7.7,16.2-16.7,24.5-26.7c19.3-23.4,47.4-62.8,71.6-118.5c2.4-5.5,4.8-11.4,7.3-17.6c7.3-18.6,13.8-37.9,19.3-57.3l0,0
					c18.5-65.7,26.8-137,24.4-212c-9.1-294.8-146.4-596.7-157.3-620.2l-4.8-0.7l5.1-3.6c1.2-0.9,120.2-87.3,104.6-203.7
					c-9.7-72.5-49.4-118-103.7-118.8c-0.4,0-0.8,0-1.3,0c-31.4,0-65.1,14.9-97.7,43.2c-51.5,44.8-58.8,69.3-53.9,92.3
					c1.4,6.7,3.8,13.3,6.3,20.3c4.6,12.8,9.8,27.3,10.3,45.8c0.2,7,1.8,16.1,3.8,26.7c7.1,39.5,17.9,99.2-25.6,156.9
					c-59,78.3-203.2,129.5-428.6,152.2C852.8,777.7,620.9,742,545.6,670.7z"/>
			</g>
		</g>
		<g>
			<g>
				<path class="st4" d="M1663.6,1463.5c-22.2,51.1-48.4,90.6-72,119.1L1663.6,1463.5z"/>
			</g>
			<g>
				<path class="st1" d="M1593.2,1583.9l-3.3-2.3l72-119.1l3.6,1.9C1646.2,1508.8,1621.2,1550.2,1593.2,1583.9z M1643.1,1501.4
					l-28.9,47.8C1623.5,1535.7,1633.4,1519.7,1643.1,1501.4z"/>
			</g>
		</g>
		<g class="st0">
			<g>
				<path class="st1" d="M1478.1,594.4c-10.9,143.5-228.5,248.7-537.8,246.1c-244.8-2-391.3-102.7-407.2-141.7
					c11.9-32.5,11.4-32.7,11.4-32.7c72.1,73.1,310,108.8,424.6,97.3c562.7-56.7,450-270.4,448.2-333.3
					c-0.8-28.1-12.5-46.4-16.5-65.6C1430.7,402.7,1486.2,488.8,1478.1,594.4z"/>
			</g>
		</g>
		<g>
			<g>
				<path class="st13" d="M597.9,582.5c0,0-160.8-54.8-124.9-240.3s270.8,41.2,274.4,61.7C751,424.4,597.9,582.5,597.9,582.5z"/>
			</g>
			<g>
				<path class="st1" d="M598.5,584.8l-1.2-0.4c-1.6-0.6-162-57.6-126.2-242.6c9.5-49.2,33.7-74.1,71.8-74.1c0.2,0,0.5,0,0.7,0
					c84,0.7,203.3,121.3,205.9,135.9c3.7,20.9-134.3,164.1-150,180.4L598.5,584.8z M542.8,271.7c-35.9,0-58.7,23.8-67.8,70.8
					c-33.5,173.1,107.8,232,122.4,237.6c61.2-63.3,150.5-161.7,148-175.9c-1.9-11-119.8-131.8-201.9-132.5
					C543.2,271.7,543,271.7,542.8,271.7z"/>
			</g>
		</g>
		<g>
			<path class="st1" d="M597.5,604.4c-1.9,0-3.8-0.4-5.6-1.1c-18.7-7.6-36.4-17.7-52.5-29.9c-68.3-52.1-104-141.1-86.6-216.5
				c11.3-48.8,44.2-82.1,90.5-91.4C654,243.3,719.4,346,742.4,391.3c3.8,7.4,0.8,16.4-6.6,20.2c-7.4,3.8-16.4,0.8-20.2-6.6
				c-24.7-48.6-79.2-127.5-166.5-109.9c-34.7,7-58.5,31.4-67.2,68.7c-12.5,54.3,9.4,135.5,75.5,185.9c14,10.7,29.3,19.4,45.6,26
				c7.7,3.1,11.4,11.9,8.3,19.5C609,600.9,603.4,604.4,597.5,604.4z"/>
		</g>
		<g>
			<path class="st14" d="M670.6,462.7c-9.2,11-24.3,30.1-36.5,50.9c-7.4,12.6-23.9,16.3-35.7,7.8c-27.1-19.5-67.7-56.4-68.5-103.4
				c-1.1-67.1,55.4-89.4,99.7-48.7c27.4,25.2,40.1,53.4,45.5,69.8C677.8,447.2,676.1,456.1,670.6,462.7z"/>
		</g>
		<g class="st0">
			<g>
				<path class="st1" d="M657.6,519c-31.7,34.7-59.7,63.5-59.7,63.5S437.1,527.6,473,342.2c10.6-55.1,38.8-73.8,73.3-72.4
					c-1.2,4.1-2.2,8.6-3.1,13.2C512.9,439.4,622.5,502.9,657.6,519z"/>
			</g>
		</g>
		<g>
			<path class="st6" d="M1673.2,1447.8l-81.5,134.9c-122.5,184.1-557.6,235.3-933.2,134.7c-159.9-42.8-276.3-131-310.8-258.4
				c16.6-18.5,35.1-36,55.4-52.3c2.1-1.7,4.2-3.3,6.3-5c6.4-4.9,12.9-9.8,19.7-14.5c2.2-1.6,4.5-3.1,6.8-4.7
				c2.3-1.6,4.6-3.1,6.9-4.6c2.1-1.4,4.1-2.7,6.2-4.1c14.4-9.2,29.5-18,45.2-26.3c2.6-1.4,5.2-2.7,7.8-4c2.6-1.3,5.3-2.7,7.9-4
				c8.7-4.3,17.6-8.4,26.6-12.4c4.8-2.1,9.6-4.2,14.5-6.2c2.8-1.1,5.5-2.3,8.3-3.4c0.1-0.1,0.2-0.1,0.4-0.2c2.8-1.1,5.6-2.2,8.5-3.3
				c2.9-1.1,5.8-2.3,8.7-3.4l8.8-3.3c3-1.1,6-2.1,8.9-3.2c6.3-2.2,12.7-4.4,19.3-6.5c5.8-1.9,11.6-3.7,17.5-5.5
				c3.2-1,6.3-1.9,9.5-2.8c2.7-0.8,5.5-1.6,8.2-2.4c3.6-1,7.3-2,11-3c3.2-0.9,6.5-1.7,9.7-2.6c9.8-2.5,19.7-4.9,29.8-7.2
				c3.4-0.8,6.7-1.5,10.2-2.2c3.1-0.7,6.2-1.4,9.4-2c2.6-0.6,5.3-1.1,7.9-1.6c3.8-0.7,7.6-1.5,11.5-2.2c16.2-3.1,32.8-5.9,49.7-8.3
				c3.9-0.6,7.7-1.1,11.6-1.7c4.3-0.6,8.6-1.2,12.9-1.7c3-0.4,5.9-0.7,8.9-1.1c5.6-0.7,11.2-1.3,16.8-1.9c4.3-0.5,8.7-0.9,13-1.3
				c5.2-0.5,10.6-1,15.9-1.5c2.8-0.2,5.6-0.5,8.4-0.7c5.4-0.5,10.7-0.9,16.2-1.2c2.7-0.2,5.3-0.4,8-0.5c2.4-0.2,4.9-0.3,7.3-0.5
				c13.5-0.8,27.3-1.5,41.2-1.9c3.4-0.1,6.7-0.2,10.1-0.3c0.8,0,1.6,0,2.4-0.1c4.2-0.1,8.4-0.2,12.6-0.3c7.8-0.1,15.7-0.3,23.6-0.3
				c2.2,0,4.4,0,6.6,0c4.1,0,8.3,0,12.4,0c48.6,0.3,96.2,3,142.3,8c3.3,0.3,6.6,0.7,9.8,1.1c8.5,0.9,16.9,2,25.3,3.1
				c2.3,0.3,4.6,0.6,6.9,0.9c8.7,1.2,17.4,2.5,26,3.9c3.2,0.5,6.4,1,9.5,1.6c2.1,0.3,4.2,0.7,6.3,1.1c3.2,0.5,6.4,1.1,9.6,1.7
				c6.8,1.2,13.6,2.5,20.4,3.9c3.2,0.6,6.3,1.3,9.4,1.9c6.7,1.4,13.4,2.8,20.1,4.3c5.9,1.3,11.7,2.7,17.5,4.1
				c0.6,0.2,1.1,0.3,1.7,0.4c3.2,0.8,6.4,1.6,9.5,2.4c3.1,0.7,6.1,1.5,9.2,2.3c2.1,0.5,4.2,1.1,6.3,1.6c2.1,0.5,4.2,1.1,6.3,1.7
				c2.2,0.6,4.4,1.2,6.5,1.8c9.3,2.6,18.5,5.2,27.6,8c3,0.9,6.1,1.9,9.1,2.8c3,0.9,6,1.9,9,2.9c2,0.6,4,1.3,6,2
				c6.9,2.3,13.8,4.6,20.5,7c2.9,1,5.7,2.1,8.6,3.1c5.2,1.9,10.4,3.9,15.5,5.8c2.6,1,5.3,2,7.9,3.1c10.9,4.3,21.6,8.8,32.1,13.4
				c2.1,0.9,4.2,1.8,6.3,2.8c2.5,1.1,5,2.2,7.5,3.4c1.7,0.8,3.3,1.5,4.9,2.3c2.4,1.1,4.7,2.2,7,3.3c20.3,9.8,39.7,20.1,58,30.9
				c2.2,1.3,4.4,2.6,6.5,3.9c10.1,6.1,19.8,12.3,29.2,18.7c1.7,1.1,3.4,2.3,5,3.5c3,2.1,6,4.2,9,6.4c2,1.4,3.9,2.8,5.8,4.3
				c5.8,4.3,11.4,8.6,16.8,13C1658.6,1435,1666,1441.4,1673.2,1447.8z"/>
		</g>
		<g class="st0">
			<g>
				<path class="st1" d="M1690.4,1388.3c-10.8,14.2-19.2,25.8-34.9,44.3c0,0,0,0,0,0c-26.7,35.4-72.4,72-121.4,101.5
					c-268.5,161.9-679.8,167.2-954,50.9c-94.1-39.9-168-116.7-195.1-163.2c0,0-0.1,0.1-0.1,0.1c-35.2-47.7-46.5-93.5-56.6-120.7
					c-4,51.5-1.9,99,9.8,135.7c2.2,7,5.7,15.6,10.6,25.4c28,98.6,104.1,172.9,213.4,218.2c29.7,12.3,63,23.1,96.8,32.2
					c134.1,35.9,276.6,47.4,408.7,47.2c237.9-0.1,445.3-58.9,524.1-177.3l0-0.1l72-119.1l9.5-15.7c-0.7-0.6-1.4-1.3-2.2-1.9
					C1678,1428,1684.6,1408.8,1690.4,1388.3z M347.6,1458.9c8.3-9.3,12.7-14.2,17.6-18.8C360.4,1444.8,356,1449.5,347.6,1458.9z"/>
			</g>
		</g>
		<g>
			<path class="st1" d="M1018.3,1777.3c-2.8,0-5.7,0-8.6,0c-7.9,0-14.2-6.4-14.2-14.3c0-7.8,6.4-14.2,14.2-14.2c0,0,0,0,0.1,0
				c4.2,0,8.4,0,12.7,0c4.3,0,8.4,0,12.6,0c2.9,0,5.7,0,8.4,0l4.1,0c11.7-0.1,23.9-0.3,39.5-0.7l8.1-0.3c3.5-0.1,6.9-0.2,10.3-0.4
				l3.7-0.2c2.3-0.1,4.7-0.2,7-0.3c8.6-0.4,17-0.8,25.3-1.3c3.9-0.2,7.5-0.4,11-0.7l3.5-0.2c2.6-0.2,5.1-0.3,7.7-0.6
				c7.7-0.6,15.3-1.2,22.7-1.9c7.9-0.7,14.7,5.1,15.4,12.9c0.7,7.8-5.1,14.7-12.9,15.4c-7.6,0.7-15.2,1.3-23,1.9
				c-2.6,0.2-5.3,0.4-8,0.6l-3.2,0.2c-3.7,0.3-7.6,0.5-11.6,0.7c-8.2,0.5-16.8,1-25.5,1.4c-2.3,0.1-4.8,0.2-7.3,0.3l-3.6,0.1
				c-3.5,0.2-7,0.3-10.6,0.4l-8.2,0.3c-16,0.4-28.4,0.7-40.2,0.8l-3.9,0c-2.9,0-5.9,0.1-8.8,0.1c-4,0-8.2,0-12.5,0
				C1021.1,1777.3,1019.7,1777.3,1018.3,1777.3z"/>
		</g>
		<g>
			<path class="st1" d="M1700.1,1042.6c-7.2,0-13.6-5.2-14.8-12.6l-0.5-3.1c-0.9-5.4-1.8-10.9-2.7-16.4
				c-29.6-173.9-60.2-268.5-136.9-464.6l-4.6-11.7l10.8-6.5c82.5-50.1,108.5-147.1,91.1-212.9c-12.1-45.7-42.5-72.5-83.5-73.7
				c-44.4-1.4-81.7,19.5-110.8,61.9c-12,17.5-22.5,38.5-31,62.5c-2.8,7.8-11.3,11.9-19.2,9.1c-7.8-2.8-11.9-11.3-9.1-19.2
				c9.4-26.4,21-49.8,34.5-69.4c34.7-50.6,81.9-76.5,136.4-74.9c54.4,1.6,96.2,37.5,111.7,96c19.9,75.3-6.4,179.6-93.9,239.4
				c74.3,190.6,104.6,286,134.1,459.1c0.9,5.6,1.8,11,2.7,16.5l0.5,3.1c1.3,8.2-4.2,15.9-12.4,17.2
				C1701.7,1042.5,1700.9,1042.6,1700.1,1042.6z"/>
		</g>
		<g>
			<path class="st1" d="M1696.9,1022.3c-6.8,0-12.8-4.9-14-11.8c-29.6-173.9-60.2-268.5-137-464.8c-2.9-7.3,0.7-15.6,8.1-18.4
				c7.3-2.9,15.6,0.7,18.4,8.1c77.6,198.3,108.5,294.1,138.5,470.4c1.3,7.7-3.9,15.1-11.6,16.4
				C1698.5,1022.2,1697.7,1022.3,1696.9,1022.3z"/>
		</g>
		<g>
			<path class="st14" d="M1463.5,433.6c8.8,9.6,21.1,24,32.3,40c11.4,16.2,34.2,19.2,49.2,6.3c25.8-22.3,57.9-58.9,56.4-102.2
				c-2.4-68.3-61.1-88.1-104-44.3c-23.9,24.3-35.5,50.5-41,67.9C1452.9,412.6,1455.6,424.9,1463.5,433.6z"/>
		</g>
		<g class="st0">
			<g>
				<path class="st1" d="M1556.7,553.2c-21.4-23.4-50.7-64.8-51.9-89.3c-1.6-34,55.5-60.8,88.2-131.4
					c25.1-54.2-16.3-91.9-36.8-106.4c54,0.7,96,45.1,106.1,121C1678.3,466.3,1556.7,553.2,1556.7,553.2z"/>
			</g>
		</g>
		<g>
			<path class="st15" d="M1649.3,1007.8"/>
		</g>
		<g>
			<path class="st1" d="M1042.2,1778.4c-10.8,0-21.7-0.1-32.8-0.3c-8.3-0.2-14.9-7-14.7-15.3c0.2-8.3,7.2-15,15.3-14.7
				c275.3,5.3,470.2-56.3,579.2-182.9c105.3-122.3,135.6-303.7,92.9-554.5c-1.4-8.2,4.1-15.9,12.3-17.3c8.1-1.4,15.9,4.1,17.3,12.3
				c44.3,260.2,11.7,449.6-99.7,579.2C1501.3,1713.3,1309.7,1778.4,1042.2,1778.4z"/>
		</g>
		<g>
			<path class="st1" d="M1009.7,1778.1C1009.7,1778.1,1009.7,1778.1,1009.7,1778.1c-80.6-0.4-154.7-5-220.4-13.5
				c-197.6-22.9-336.2-90.3-411.8-200.4c-87.7-127.7-72.1-286.2-43.6-396.6c27.6-106.8,66.8-196,104.8-282.2
				c47.3-107.4,91.9-208.8,100-321.7c0.6-8.3,7.7-14.6,16-13.9c8.3,0.6,14.5,7.8,13.9,16c-8.5,118.1-54.1,221.8-102.5,331.6
				c-37.5,85.1-76.2,173.1-103.2,277.6c-26.9,104.4-42,253.7,39.3,372.1c70.5,102.6,201.9,165.8,390.7,187.6
				c64.6,8.4,137.5,12.8,216.8,13.3c8.3,0,15,6.8,14.9,15.1C1024.7,1771.4,1018,1778.1,1009.7,1778.1z"/>
		</g>
		<g>
			
				<ellipse transform="matrix(0.1585 -0.9874 0.9874 0.1585 -120.252 2535.978)" class="st14" cx="1427.7" cy="1338.5" rx="79.8" ry="136.5"/>
		</g>
		<g class="st3">
			
				<ellipse transform="matrix(0.1585 -0.9874 0.9874 0.1585 -80.1369 2513.6074)" class="st4" cx="1434.6" cy="1303.8" rx="28.8" ry="49.2"/>
		</g>
		<g>
			
				<ellipse transform="matrix(0.9847 -0.1744 0.1744 0.9847 -220.4203 124.995)" class="st14" cx="601" cy="1316.7" rx="136.5" ry="79.8"/>
		</g>
		<g class="st3">
			
				<ellipse transform="matrix(0.9847 -0.1744 0.1744 0.9847 -215.0385 123.7152)" class="st4" cx="596.4" cy="1285.4" rx="48.3" ry="28.2"/>
		</g>
		<g>
			<g>
				<path class="st5" d="M810.6,399.6c-0.8,6.4-1.8,13.5-3.1,21.5c-7.4,46.2-32.6,90.7-54.7,121.8c-14.9,21.1-28.4,36-34.1,41.2
					c-4.4,4.1-17.6,17.8-35.3,33.5c-25.3,22.4-59.6,48.8-90.7,56.4c-16.3,4-31.7,2.8-44.3-6.8c-45.5-34.8,19.2-65.1,79.1-136.2
					c1.3-1.5,2.6-3.1,3.9-4.7c9.1-11.1,18-23.2,26.3-36.4C722.1,388.1,849,310.2,849,310.2C833.8,326.3,817.5,344.4,810.6,399.6z"/>
			</g>
			<g>
				<path class="st1" d="M576.2,678.7c-11.2,0-21-3.2-29.2-9.5c-10.4-8-15.7-16.1-16.2-25c-1.1-18.2,18.1-36.7,44.5-62.3
					c15.5-15,33.1-32,50.4-52.6c1-1.1,1.9-2.3,2.8-3.4l1-1.3c9.9-12.2,18.5-24,26.1-36.1c63.9-101.2,190.6-179.8,191.9-180.6l16-9.8
					l-12.9,13.7c-14.4,15.4-30.8,32.8-37.6,88l0,0c-0.8,6.6-1.8,13.7-3.1,21.6c-7.7,48.3-34.2,93.5-55.1,122.9
					c-15.7,22.3-29.4,36.9-34.4,41.6c-1.3,1.2-3.3,3.2-6,5.9c-6.7,6.6-16.8,16.6-29.3,27.7c-35.6,31.6-66.5,50.8-91.7,57
					C587.4,678,581.7,678.7,576.2,678.7z M835,322.4C799.3,346.6,710,412,660,491.3c-7.8,12.3-16.4,24.3-26.5,36.6l-1.1,1.3
					c-1,1.2-1.9,2.3-2.9,3.4c-17.5,20.8-35.2,37.8-50.8,52.9c-25.5,24.7-43.9,42.5-43,58.4c0.4,7.3,5.1,14.3,14.3,21.3
					c11,8.4,25.2,10.6,42.2,6.4c24.5-6,54.6-24.8,89.6-55.9c12.4-11,22.4-20.9,29.1-27.5c2.8-2.7,4.9-4.8,6.2-6
					c4.9-4.5,18.2-18.9,33.7-40.8c20.6-28.9,46.6-73.4,54.2-120.8c1.3-7.8,2.3-14.8,3.1-21.4l0,0C813.3,357.6,823.8,336.8,835,322.4
					z"/>
			</g>
		</g>
		<g>
			<g>
				<path class="st2" d="M1191.6,275.2c0,0-12.1,9.1-30.8,23.3c-7.1,5.5-15.3,11.7-24.1,18.5c-65.6,50.7-168,132.2-176.5,153.8
					c-3.3,8.4-13.7,27.5-29.9,51.2c-7.5,10.8-16.1,22.7-25.9,34.9c-0.1,0.1-0.2,0.2-0.3,0.3c-24.2,30.1-55.3,62.7-91.9,89.2
					c-33.1,24-70.7,42.9-111.7,50.2c-6.9,1.3-13.9,2.2-21,2.7c-155.2,12.2-92.6-21.9-92.6-21.9s2.1-1.2,5.9-3.3
					c13.5-7.8,48.2-28.9,85.8-59.1c25.3-20.3,52-44.8,74.2-72.1c21.6-26.5,39.1-55.7,47.2-86.4c6.2-23.7,12.4-44,18.4-61.4
					c25.1-72.5,48.5-94.9,72.3-99.7C920.3,289.5,1128.2,260.1,1191.6,275.2z"/>
			</g>
			<g>
				<path class="st1" d="M622.8,704.5c-41.1,0-48.9-6.3-50.5-11.8c-2.5-8.3,10.8-16,13.5-17.5l0,0c0,0,2.1-1.2,5.9-3.3
					c13.2-7.7,48.1-28.9,85.5-58.9c29.6-23.8,54.5-47.9,73.9-71.7c23.7-29.1,39.4-57.8,46.7-85.4c6.1-23,12.3-43.7,18.4-61.5
					c22.2-64.2,45.1-95.5,74.1-101.3c28.7-5.8,237.2-35.6,301.9-20.2l5.2,1.2l-4.3,3.2c0,0-12.1,9-30.8,23.3
					c-7.1,5.5-15.3,11.7-24,18.5c-107.1,82.8-169.5,137-175.7,152.7c-3.6,9-14.3,28.5-30.1,51.7c-8.2,11.9-16.9,23.7-26,35.1
					l-0.4,0.4c-29,36.1-60,66.2-92.3,89.5c-37.1,26.8-75,43.9-112.7,50.7c-7.2,1.3-14.4,2.3-21.3,2.8
					C655.9,703.7,637.3,704.5,622.8,704.5z M1139.2,273.5c-84.5,0-219.9,18.7-248,24.4c-18.3,3.7-42.8,18.2-70.4,98.1
					c-6.1,17.7-12.3,38.3-18.3,61.2c-7.5,28.3-23.5,57.7-47.7,87.3c-19.6,24.1-44.7,48.5-74.6,72.4c-37.6,30.2-72.8,51.5-86.1,59.3
					c-3.9,2.2-5.9,3.4-5.9,3.4c-5.1,2.8-12.1,8.4-11.1,11.7c0.9,3.1,11,12.7,102.3,5.5c6.7-0.5,13.7-1.4,20.8-2.7
					c37-6.6,74.2-23.4,110.6-49.8c31.9-23.1,62.7-52.9,91.4-88.7l0.4-0.4c9-11.2,17.6-22.9,25.7-34.7c15.6-22.9,26.1-42,29.6-50.7
					c8.4-21.2,101.1-95.9,177.3-154.8c8.8-6.8,16.9-13,24.1-18.5c12-9.1,21.2-16.1,26.4-20C1173.7,274.4,1157.7,273.5,1139.2,273.5z
					"/>
			</g>
		</g>
		<g>
			<g>
				<path class="st5" d="M1358.9,385.2c-10.5-0.1-22.5,0.2-35.1,2.1c-20.6,3.3-42.5,11-61.3,28.8
					c-32.9,31.1-101.7,122.5-198.4,200.8c-6.9,5.6-14,11.2-21.2,16.6c-36.7,27.7-77.1,53-120.8,72.3c-0.2,0.1-0.3,0.1-0.4,0.2
					c-36.1,15.9-74.4,27.7-114.8,33.3c0,0-128.7-9-126.5-34c0,0,7.6-3,20.3-8.8c21.4-9.7,57.4-27.3,95.6-51.2
					c37.6-23.6,77.5-53.4,107.9-88.1c0.1-0.1,0.2-0.2,0.3-0.3c9.7-11.1,18.5-22.8,25.9-34.9c8-13.1,14.4-26.7,18.7-40.9
					c0,0,52-68.4,64.5-82.5c23.9-26.9,90.6-63.4,114.6-81.3c4.3-3.2,7.2-5.8,8.3-7.7c2.1-3.5,11.3-7.5,24.3-11.2
					c32.5-9.1,88.8-16,116.3-7.2c34.3,11.1,92,51.2,112,76.9c2.4,3.1,4.3,5.9,5.5,8.5C1399.9,388.1,1383.6,385.5,1358.9,385.2z"/>
			</g>
			<g>
				<path class="st1" d="M806.9,741.8l-0.3,0c-4.4-0.3-108.2-7.8-125.9-28.6c-2.2-2.5-3.2-5.3-2.9-8.1l0.1-1.5l1.4-0.6
					c0.1,0,7.7-3.1,20.2-8.7c22.9-10.4,58-27.7,95.3-51.1c45-28.2,81.1-57.7,107.3-87.7c10.3-11.8,18.9-23.4,26-34.9
					c8.1-13.3,14.4-26.8,18.5-40.3l0.4-0.8c2.1-2.8,52.2-68.6,64.6-82.6c16.4-18.5,52.3-41.1,81.1-59.4c14-8.9,26.1-16.5,33.8-22.3
					c5.2-3.9,7-5.9,7.6-6.9c2.4-4,11.1-8.2,25.8-12.3c30.1-8.5,88.4-16.6,117.7-7.2c34.2,11.1,92.4,51,113.2,77.7
					c2.7,3.4,4.5,6.4,5.8,9c1.6,3.3,1.6,6.1,0.2,8.2c-3.1,4.7-12.1,4.5-27.1,4.1c-3.5-0.1-7.2-0.2-11.2-0.2l0,0
					c-8.4-0.1-21.2,0-34.7,2.1c-24.4,3.9-44.1,13.1-60,28.1c-10,9.5-23.2,24.4-40,43.3c-38.5,43.5-91.3,103.1-158.5,157.6
					c-6.6,5.4-13.6,10.8-21.3,16.7c-40.3,30.4-81.1,54.9-121.3,72.6c-38.8,17.1-77.6,28.3-115.9,33.7L806.9,741.8z M682.9,707
					c0.2,1,0.8,2,1.6,3c13.1,15.3,85.5,24.3,122.2,26.9c37.7-5.3,76-16.4,113.8-33.1l0.5-0.2c39.8-17.6,80.2-41.8,120.2-72
					c7.7-5.8,14.6-11.2,21.2-16.6c66.9-54.1,119.5-113.6,158-157c16.8-19,30.1-34,40.3-43.6c16.7-15.8,37.2-25.4,62.6-29.4
					c13.9-2.1,26.9-2.3,35.5-2.2c4,0,7.8,0.1,11.3,0.2c10.4,0.3,21.2,0.6,22.8-1.8c0.4-0.5,0.1-1.8-0.6-3.4
					c-1.1-2.3-2.7-4.9-5.2-8.1c-20-25.6-78-65.4-110.8-76c-25.7-8.3-79.6-2.7-114.8,7.2c-19.3,5.4-22.4,9.3-22.9,10
					c-1.2,2.1-4.1,4.8-8.9,8.4c-7.9,5.9-20.1,13.6-34.2,22.5c-28.6,18.1-64.1,40.5-80.1,58.5c-11.9,13.3-60.1,76.7-64.1,82
					c-4.3,13.7-10.6,27.5-18.9,41c-7.2,11.7-16,23.6-26.2,35.3l-0.6,0.6c-26.2,30-62.7,59.8-108.1,88.3
					c-37.6,23.6-72.9,41-95.9,51.4C692.4,703,685.8,705.8,682.9,707z"/>
			</g>
		</g>
		<g class="st0">
			<g>
				
					<ellipse transform="matrix(9.244028e-02 -0.9957 0.9957 9.244028e-02 472.798 1398.0009)" class="st1" cx="1003.3" cy="439.6" rx="77.5" ry="166.8"/>
			</g>
		</g>
		<g>
			<g>
				<path class="st2" d="M1414.6,577.8c-38.8,68.9-248,164.7-406.3,187.6c-158.3,22.9-215.3-27.1-215.3-27.1c4.4,0.7,9,1,13.9,1
					c31.9,0.3,72.3-12.9,114.8-33.3c0.1-0.1,0.3-0.1,0.4-0.2c40.3-19.4,82.4-45.3,120.8-72.3c8.3-5.8,16.3-11.6,24.2-17.4
					c55.4-41,99.9-81.9,114.9-104.3c39.2-58.4,90.3-97.4,130.9-119.8c3.5-1.9,7.2-3.4,10.9-4.6c11.5-3.6,23.7-3.7,35.1-2.1
					c14,2,26.9,6.5,36.1,10.5c8.9,3.8,14.4,7.1,14.4,7.1C1422.1,411,1453.3,508.9,1414.6,577.8z"/>
			</g>
			<g>
				<path class="st1" d="M929.4,773.9c-98.2,0-136.2-32.1-138.1-33.7l-6.5-5.7l8.5,1.3c4.3,0.7,8.9,1,13.5,1
					c29.4,0.2,67.5-10.8,113.7-33.1l0.6-0.3c37-17.9,78.6-42.8,120.3-72c7.7-5.4,15.6-11.1,24.1-17.4c53.2-39.4,99.1-81,114.3-103.7
					c44.5-66.4,101.7-104,131.8-120.6c3.5-1.9,7.4-3.5,11.4-4.8c10.7-3.3,22.9-4.1,36.2-2.2c14.7,2.1,28.1,6.9,36.8,10.6
					c8.9,3.8,14.5,7.1,14.7,7.3c14.9,9.6,44.8,109.5,6,178.3c-38.6,68.7-248.4,165.8-408.1,188.8
					C978.7,772.2,952.4,773.9,929.4,773.9z M802.5,741.7c20.4,12,82.2,38.9,205.4,21.1c158.5-22.9,366.4-118.7,404.4-186.3l0,0
					c38.2-67.8,6.8-164.5-4.3-171.7l0,0c0,0-5.5-3.2-14.1-6.9c-8.4-3.6-21.4-8.3-35.5-10.3c-12.6-1.8-24-1.1-34,2.1
					c-3.7,1.2-7.2,2.7-10.5,4.4c-29.7,16.3-86.1,53.5-130.1,119c-15.7,23.4-61,64.6-115.5,104.9c-8.5,6.4-16.5,12.1-24.2,17.5
					c-41.9,29.4-83.8,54.5-121.2,72.5c-47.3,22.8-86.1,34-116.3,33.8C805.3,741.8,803.9,741.8,802.5,741.7z"/>
			</g>
		</g>
		<g>
			<path class="st1" d="M744,750.4c-8,0-12.9-0.3-14-0.4c-5.6-0.4-9.8-5.2-9.4-10.8c0.4-5.6,5.3-9.9,10.8-9.4
				c1.9,0.1,190.9,11.2,357.8-141.4c42.7-39.1,74.6-77,102.6-110.6c68-81.2,112.9-134.8,222.3-87.1c5.1,2.2,7.5,8.2,5.3,13.4
				c-2.2,5.1-8.2,7.5-13.4,5.3c-95.4-41.6-132,2.2-198.6,81.6c-28.5,34-60.8,72.5-104.5,112.5C954.1,739.5,792.2,750.4,744,750.4z"
				/>
		</g>
		<g>
			<g>
				<path class="st4" d="M895.9,410.3c1.8,0.8,3.7,1.5,5.6,2.2C899.6,411.8,897.7,411.1,895.9,410.3c-1.6-0.6-3.2-1.4-4.7-2.2
					C892.7,408.9,894.3,409.6,895.9,410.3z"/>
			</g>
			<g>
				<path class="st1" d="M900.9,414.4c-2-0.7-3.9-1.5-5.7-2.2c-1.7-0.7-3.3-1.5-4.9-2.3l1.8-3.6c1.5,0.8,3,1.5,4.6,2.1h0
					c1.8,0.7,3.7,1.5,5.6,2.2L900.9,414.4z"/>
			</g>
		</g>
		<g>
			<g>
				<path class="st4" d="M913.8,416.7c-4.2-1.3-8.3-2.7-12.2-4.2C905.5,414,909.6,415.4,913.8,416.7z"/>
			</g>
			<g>
				<path class="st1" d="M913.2,418.7c-4.1-1.2-8.3-2.7-12.3-4.2l1.4-3.8c3.9,1.4,7.9,2.8,12.1,4.1L913.2,418.7z"/>
			</g>
		</g>
		<g>
			<path class="st1" d="M851,413.3c10.3,9,22.1,17.1,34.2,23.8c12.1,6.7,24.8,12.3,37.8,16.6c26.1,8.7,53.3,12.5,81.2,12.3
				c14,0.4,27.9-0.9,41.7-2c13.7-1.7,27.3-4.2,40.6-7.8c13.2-3.8,26.1-8.7,38.4-15.1c12.5-6.3,24.1-14.3,37-21.8
				c2-1.1,4.4-0.5,5.6,1.5c1,1.7,0.6,3.8-0.7,5l-0.1,0.1c-10.3,9.7-21.2,19.9-33.6,28.5c-12.3,8.6-25.9,15.8-40.2,21
				c-14.2,5.4-29,8.8-43.9,11.3c-7.4,0.9-14.9,2.3-22.4,2.5l-11.2,0.7l-11.2,0.2c-14.9,0.5-30.2-1-45.2-3.5
				c-14.9-2.8-29.7-7.1-43.7-13.1c-7-3-13.8-6.4-20.4-10.1c-6.5-3.8-12.8-8.1-18.9-12.6c-12-9.3-22.9-19.6-31.5-32.5
				c-1.2-1.9-0.7-4.4,1.1-5.6c1.6-1,3.6-0.8,4.9,0.3L851,413.3z"/>
		</g>
		<g class="st0">
			<g>
				<path class="st1" d="M1414.6,577.8c-38.8,68.9-248,164.7-406.3,187.6c-158.3,22.9-215.3-27.1-215.3-27.1c4.4,0.7,9,1,13.9,1
					c0,0-128.7-9-126.5-34c0,0,7.6-3,20.3-8.8c-6.9,1.3-13.9,2.2-21,2.7c-155.2,12.2-92.6-21.9-92.6-21.9s2.1-1.2,5.9-3.3
					c-16.3,4-31.7,2.8-44.3-6.8c-46.5-35.5-6.4-34.7,54.6-109.2c-7.9,35,22.2,54.2,78.9,73.4c56.7,19.2,233.8,58.9,395.3,35.2
					c297.4-43.6,332.1-263.9,332.1-263.9C1422.1,411,1453.3,508.9,1414.6,577.8z"/>
			</g>
		</g>
		<g class="st3">
			<path class="st4" d="M841.5,322.7c-15.1,16.1-24,21.6-30.8,76.9c-46.9,27.3-91.8,63.4-134.7,110.8c-21.3,23.5-37,28.6-48.3,20.6
				c1.3-1.5,2.6-3.1,3.9-4.7c9.1-11.1,18-23.2,26.3-36.4C722.1,388.1,841.5,322.7,841.5,322.7z"/>
		</g>
		<g class="st3">
			<path class="st4" d="M1284.8,327.7c6,6.4,9.2,13.7,8.7,21.1c-1.4,23-36.8,39.5-79.2,36.9c-42.3-2.6-75.5-23.3-74.1-46.2
				c0.6-9.3,6.7-17.6,16.7-23.9c-6.1,0.1-12.1,0.4-18.2,0.8c-2.8,0.1-5.7,0.4-8.6,0.6c-1.7,0.1-3.4,0.3-5.1,0.4
				c-110.8,10.2-227.8,40.7-318.7,95.4c22.7-73.2,62.1-104.6,85.7-110.2c29.3-6.9,236.3-42.8,300.1-29.8c0,0-11.8,9.4-30,24.3
				c32.2-10.2,88.2-18.8,116-10.9c34.6,10,93.6,48.3,114.4,73.3C1364.6,348.7,1327.5,336.5,1284.8,327.7z"/>
		</g>
		<g>
			<path class="st1" d="M1408.2,405.5c-4.9,0-9.7-2.5-12.3-7.1c-50-86.2-165.5-131.1-316.8-123.1c-8,0.4-14.5-5.6-15-13.5
				c-0.4-7.8,5.6-14.5,13.5-15c162.3-8.6,287.3,41.4,342.9,137.2c3.9,6.8,1.6,15.5-5.2,19.4C1413.1,404.8,1410.7,405.5,1408.2,405.5
				z"/>
		</g>
		<g>
			<path class="st1" d="M925.8,778.7c-90.7,0-182.8-16.6-283.6-49.4c-78.5-25.6-116-51.2-121.5-83c-6.3-36.5,32.3-66.4,69.7-95.4
				c23-17.8,46.8-36.2,56-53.2l0.6-1c7-10.7,13.5-21.6,19.9-32.1c21-34.8,42.8-70.7,84.2-111.3c14.5-14.2,56.2-49.5,131.4-71.5
				c7.6-2.2,15.4,2.1,17.6,9.7c2.2,7.5-2.1,15.4-9.7,17.6c-69,20.2-106.5,51.8-119.5,64.5c-38.9,38.1-58.7,70.9-79.8,105.7
				c-6.4,10.6-13,21.5-20.1,32.4c-12.2,22-38.2,42.1-63.3,61.6c-29.3,22.7-62.5,48.4-59,68c1.9,10.9,17.7,33.3,102.3,60.8
				c222.5,72.5,393.8,64.6,611-28.1c83.7-35.7,136-80.7,155.4-133.6c9.9-27.2,16-71.2-11.8-126.4l-0.5-0.9c-1.3-2.5-2.3-4.5-2.8-5.6
				c-3.3-7.1-0.3-15.6,6.8-18.9c7.1-3.3,15.6-0.3,18.9,6.8c0.5,1,1.3,2.7,2.5,4.9l0.5,1c32.3,64.4,25,116.6,13.1,149
				c-22.2,60.6-79.7,111.1-170.9,150C1150.3,752.8,1039.2,778.7,925.8,778.7z"/>
		</g>
		<g>
			<path class="st1" d="M573.7,688.2c-3.9,0-7.5-2.2-9.2-5.9c-2.3-5.1-0.1-11.1,5-13.5c1.9-0.9,190.6-88.4,217.2-199.2
				c4.6-19.3,7.9-35.7,10.9-50.1c12.5-61.7,17.7-87.2,83.2-132.3c4.6-3.2,11-2,14.1,2.6c3.2,4.6,2,11-2.6,14.1
				c-58.8,40.4-62.8,60.3-74.8,119.6c-3,14.6-6.3,31.1-11,50.8C777.5,594.7,586,683.5,577.9,687.2
				C576.5,687.9,575.1,688.2,573.7,688.2z"/>
		</g>
		<g>
			<path class="st1" d="M632.2,721.1c-4.8,0-9.1-3.5-10-8.4c-1-5.5,2.7-10.8,8.2-11.8c2.2-0.4,222.8-40.8,293.6-186.1
				c49.6-101.7,162.3-267.6,360.1-235.8c5.5,0.9,9.3,6.1,8.4,11.6c-0.9,5.5-6.1,9.3-11.6,8.4c-184.9-29.7-291.5,128-338.6,224.7
				C867,678.4,643.5,719.3,634,720.9C633.4,721,632.8,721.1,632.2,721.1z"/>
		</g>
		<g>
			<g>
				<path class="st16" d="M1102.9,444.2c-26.9,34.7-77.1,33.6-98,33.6c-12.6,0-35.6,0.2-57.8-7.2c-20.9-6.9-41.1-20.6-51-47.6
					c62.2-14.2,157.9-43.7,220.4-93.9c2.8,20.4,4.4,38.8,4.4,54.4C1120.8,411,1113.7,430.4,1102.9,444.2z"/>
			</g>
			<g>
				<path class="st1" d="M1009.5,480.3c-1,0-1.9,0-2.9,0l-2.9,0c-13.3,0-35.5-0.1-57.5-7.4c-26.1-8.6-43.8-25.2-52.5-49.1l-1-2.7
					l2.8-0.6c53.8-12.2,153.8-40.6,219.3-93.4l3.4-2.8l0.6,4.4c3,21.4,4.4,39.8,4.4,54.7c-0.1,25.8-6.3,46.7-18.5,62.3
					C1079.1,479.1,1032.2,480.3,1009.5,480.3z M899.5,424.8c8.5,21,24.8,35.6,48.4,43.4c21.2,7.1,42.9,7.1,55.9,7.1l2.9,0
					c22.3,0,68.8,0.2,94.3-32.6l0,0c11.5-14.6,17.3-34.6,17.4-59.2c0.1-13.7-1.2-30.4-3.8-49.7
					C1049.4,384.6,953.4,412.4,899.5,424.8z"/>
			</g>
		</g>
		<g>
			<g>
				<path class="st4" d="M1060.8,234c-11.7,5.6-24,10.7-36.8,15.1c-28.7,10-57.4,15.7-84.8,17.6l19.2-57l28.8-85.6
					c5.1-15.1,29.3-15.3,34.6-0.3l27.1,76.2L1060.8,234z"/>
			</g>
			<g>
				<path class="st1" d="M936.3,269l48.9-145.5c2.6-7.7,10.1-12.7,19.1-12.8c0.1,0,0.1,0,0.2,0c8.9,0,16.4,4.9,19.1,12.5l39.7,111.8
					l-1.6,0.8c-11.9,5.7-24.4,10.8-37.1,15.2c-28.3,9.8-57,15.8-85.3,17.8L936.3,269z M1004.6,114.8c0,0-0.1,0-0.1,0
					c-5.5,0-12.8,2.7-15.3,10l-47,139.7c27-2.2,54.3-8,81.2-17.3c12-4.1,23.7-8.9,35-14.3l-38.5-108.4
					C1017.3,117.3,1010,114.8,1004.6,114.8z"/>
			</g>
		</g>
		<g>
			<g>
				<path class="st16" d="M1116.5,329.1c-62.4,50.2-158.1,79.7-220.4,93.9c-4.1-11.1-6.4-24.4-6.3-40.4c0.1-23.3,3.9-53,10.2-85.9
					l0,0c3-0.6,6-1.3,9.2-2c9.7-2.3,20.1-4.9,31.1-7.9c4.5-1.2,9.1-2.5,13.8-3.9c4.7-1.3,9.5-2.8,14.3-4.3l0,0c3.2-1,6.4-2,9.7-3.1
					c2.3-0.7,4.6-1.5,7-2.3c0.8-0.3,1.5-0.5,2.3-0.8c1.5-0.5,3.1-1,4.7-1.6c1-0.4,2-0.7,3-1.1c1.7-0.6,3.5-1.2,5.3-1.9
					c9.4-3.4,18.8-7,28.2-10.9c2.9-1.2,5.8-2.4,8.7-3.7c0.7-0.3,1.4-0.6,2.2-1c2.8-1.2,5.6-2.5,8.4-3.8c0,0,0.1,0,0.1-0.1
					c3.3-1.5,6.5-3,9.7-4.6c3.2-1.6,6.5-3.2,9.7-4.8c3.2-1.6,6.4-3.3,9.5-5c0.2-0.1,0.3-0.1,0.5-0.2c1-0.6,2-1.1,2.9-1.6
					c1.6-0.9,3.3-1.9,4.9-2.8c3.5-2,6.8-4,10.2-6c2.9,11.7,5.6,23.4,8.1,34.8c5,22.8,9.2,44.8,12.2,65.2
					C1116,325.3,1116.3,327.2,1116.5,329.1z"/>
			</g>
			<g>
				<path class="st1" d="M894.6,425.9l-0.8-2.1c-4.4-11.9-6.5-25.8-6.5-41.3c0.1-22.3,3.5-51.4,10.2-86.4l0.3-1.6l1.6-0.4
					c2-0.4,4.1-0.9,6.2-1.4l3-0.7c11.7-2.8,21.5-5.2,31-7.8c4.5-1.2,9.1-2.5,13.8-3.9c4.5-1.3,9-2.6,13.6-4.1l0,0l2.7-0.9
					c2.5-0.8,5-1.6,7.6-2.4c2.3-0.8,4.6-1.5,7-2.3l9.9-3.4c1.8-0.6,3.5-1.2,5.2-1.9c9.2-3.3,18.6-7,28.1-10.9
					c2.9-1.2,5.8-2.4,8.6-3.6l2.2-1c2.7-1.2,5.4-2.4,8-3.6l0.4-0.2c3.2-1.5,6.5-3,9.7-4.6c3.4-1.7,6.5-3.2,9.6-4.8
					c3.2-1.6,6.4-3.3,9.5-5l1.7,2l-1.2-2.2l0.8-0.5c0.7-0.4,1.4-0.8,2.1-1.2l5-2.8c3.4-1.9,6.7-4,10.1-6l2.9-1.8l0.8,3.3
					c3.3,13.5,5.9,24.6,8.1,34.9c5.2,23.8,9.4,45.8,12.3,65.3c0.2,1.5,0.4,3,0.7,4.5l0.4,2.8l-1.1,0.9
					c-66.4,53.4-167.2,82-221.4,94.4L894.6,425.9z M902.1,298.7c-6.4,34.1-9.7,62.3-9.8,83.9c0,14,1.8,26.6,5.5,37.5
					c53.9-12.4,151.3-40.5,216.1-92c-0.2-1.5-0.4-2.9-0.6-4.4c-2.9-19.4-7-41.3-12.2-65c-2.1-9.4-4.4-19.5-7.3-31.4
					c-2.4,1.5-4.8,2.9-7.3,4.3l-5,2.8c-0.7,0.4-1.4,0.8-2.1,1.2l-0.8,0.4c-0.2,0.1-0.4,0.2-0.7,0.4c-2.9,1.6-6.1,3.3-9.4,5
					c-3.1,1.6-6.3,3.2-9.5,4.7c-3.3,1.6-6.5,3.1-9.6,4.6l-0.5,0.3c-2.8,1.3-5.6,2.5-8.4,3.8l-2.2,1c-2.9,1.3-5.8,2.5-8.7,3.7
					c-9.5,4-19.1,7.6-28.3,11c-1.7,0.7-3.5,1.3-5.3,1.9l-9.9,3.4c-2.4,0.8-4.7,1.6-7.1,2.3c-2.6,0.8-5.1,1.6-7.6,2.4l-2.2,0.7
					c-4.8,1.5-9.6,3-14.4,4.3c-4.7,1.3-9.3,2.7-13.9,3.9c-9.5,2.6-19.4,5.1-31.2,7.9l-3,0.7C905.2,298.1,903.6,298.4,902.1,298.7z"
					/>
			</g>
		</g>
		<g>
			<g>
				<path class="st16" d="M1095.3,223.3c-3.3,2-6.7,4.1-10.2,6c-1.6,0.9-3.3,1.9-4.9,2.8c-1,0.6-1.9,1.1-2.9,1.6
					c-0.2,0.1-0.3,0.2-0.5,0.2c-3.1,1.7-6.3,3.4-9.5,5c-3.2,1.7-6.4,3.2-9.7,4.8c-3.2,1.6-6.5,3.1-9.7,4.6c0,0-0.1,0-0.1,0.1
					c-2.8,1.3-5.6,2.5-8.4,3.8c-0.7,0.3-1.4,0.6-2.2,1c-2.9,1.3-5.8,2.5-8.7,3.7c-9.4,3.9-18.8,7.5-28.2,10.9
					c-1.7,0.7-3.5,1.3-5.3,1.9c-1,0.4-2,0.7-3,1.1c-1.5,0.5-3.1,1-4.7,1.6c-0.8,0.3-1.5,0.5-2.3,0.8c-2.4,0.8-4.7,1.5-7,2.3
					c-3.3,1.1-6.5,2.1-9.7,3.1l0,0c-4.8,1.5-9.6,2.9-14.3,4.3c-4.7,1.3-9.3,2.6-13.8,3.9c-11,3-21.5,5.6-31.1,7.9
					c-3.1,0.7-6.2,1.4-9.2,2c7.9-41.7,19.8-88.5,32.7-133l0,0c30.4-7.6,66.4-18.3,102-32.8c10.5-4.3,20.9-8.8,31.1-13.8
					C1076.2,150.6,1086.6,187.3,1095.3,223.3z"/>
			</g>
			<g>
				<path class="st1" d="M896.8,299.9l0.7-3.7c7.3-38.6,18.6-84.6,32.7-132.8v-1.6l1.9-0.5c36.5-9.1,70.7-20.1,101.7-32.7
					c11.2-4.6,21.4-9.1,31-13.7l2.6-1.2l0.9,2.8c11.3,36.3,21.5,73.1,29.6,106.4l0.4,1.8l-1.6,1c-3.4,2.1-6.8,4.1-10.2,6.1l-5,2.8
					c-0.7,0.4-1.4,0.8-2.1,1.2l-0.8,0.4c-0.2,0.1-0.4,0.2-0.7,0.4c-2.9,1.6-6.1,3.3-9.4,5c-3.1,1.6-6.3,3.2-9.5,4.7
					c-3.3,1.6-6.5,3.1-9.6,4.6l-0.5,0.3c-2.8,1.3-5.6,2.5-8.4,3.8l-2.2,1c-2.9,1.3-5.8,2.5-8.7,3.7c-9.5,4-19.1,7.6-28.3,11
					c-1.7,0.7-3.5,1.3-5.3,1.9l-9.9,3.4c-2.4,0.8-4.7,1.6-7.1,2.3c-2.6,0.8-5.1,1.6-7.6,2.4l-2.2,0.7c-4.8,1.5-9.6,3-14.4,4.3
					c-4.7,1.3-9.3,2.7-13.9,3.9c-9.5,2.6-19.4,5.1-31.2,7.9l-3,0.7c-2.1,0.5-4.2,0.9-6.2,1.4L896.8,299.9z M934.7,165.7
					c-13.4,46.2-24.3,90.2-31.5,127.7c0.8-0.2,1.7-0.4,2.5-0.6l3-0.7c11.7-2.8,21.5-5.2,31-7.8c4.5-1.2,9.1-2.5,13.8-3.9
					c4.5-1.3,9-2.6,13.6-4.1l0,0l2.7-0.9c2.5-0.8,5-1.6,7.6-2.4c2.3-0.8,4.6-1.5,7-2.3l9.9-3.4c1.8-0.6,3.5-1.2,5.2-1.9
					c9.2-3.3,18.6-7,28.1-10.9c2.9-1.2,5.8-2.4,8.6-3.6l2.2-1c2.7-1.2,5.4-2.4,8-3.6l0.4-0.2c3.2-1.5,6.5-3,9.7-4.6
					c3.4-1.7,6.5-3.2,9.6-4.8c3.2-1.6,6.4-3.3,9.5-5l1.7,2l-1.2-2.2l0.8-0.5c0.7-0.4,1.4-0.8,2.1-1.2l5-2.8c2.9-1.6,5.7-3.3,8.5-5
					c-7.8-31.9-17.5-66.9-28.2-101.6c-8.9,4.2-18.3,8.3-28.7,12.6C1004.9,145.7,970.9,156.6,934.7,165.7z"/>
			</g>
		</g>
		<g>
			<g>
				<path class="st16" d="M1065.8,117.1c-10.3,4.9-20.7,9.5-31.1,13.8c-35.6,14.5-71.6,25.2-102,32.8c11.2-38.6,23.2-75.5,34.3-106
					c1.8-5,3.6-9.8,5.3-14.4c14.6-38.7,54.5-38.6,68.8,0.2C1048.9,64.7,1057.4,89.9,1065.8,117.1z"/>
			</g>
			<g>
				<path class="st1" d="M929.1,167.1l1.2-4.2c11-37.7,22.8-74.4,34.3-106.2c1.8-5,3.6-9.8,5.3-14.5c7.2-19.2,21-30.6,36.7-30.6
					c0,0,0.1,0,0.1,0c15.8,0,29.6,11.6,36.7,30.8c8.1,22.1,16.7,47.6,24.7,73.8l0.6,2.1l-1.9,0.9c-9.7,4.7-19.9,9.2-31.3,13.8
					c-31.2,12.7-65.6,23.8-102.3,32.9L929.1,167.1z M1006.7,16.7c-13.6,0-25.6,10.2-32.1,27.3c-1.7,4.6-3.5,9.4-5.3,14.4
					c-11,30.4-22.4,65.5-33,101.7c34.9-8.9,67.7-19.5,97.4-31.6c10.5-4.3,20-8.5,29-12.8c-7.9-25.3-16.2-50-24-71.5
					C1032.4,27.1,1020.5,16.8,1006.7,16.7C1006.7,16.7,1006.7,16.7,1006.7,16.7z"/>
			</g>
		</g>
		<g class="st0">
			<g>
				<path class="st1" d="M1102.9,444.2l-69.7,28.6l-86.1-2.3c-20.9-6.9-41.1-20.6-51-47.6c-4.1-11.1-6.4-24.4-6.3-40.4
					c0.1-23.3,3.9-53,10.2-85.9l0,0c7.9-41.7,19.8-88.5,32.7-133c-1.2,27.2-1.9,79.6,7.6,123.1c7.4,34.2,21.2,62.8,45.8,69.2
					c46.8,12.1,97.8-7.4,129.5-32.6c0.3,2,0.6,3.9,0.8,5.8c2.8,20.4,4.4,38.8,4.4,54.4C1120.8,411,1113.7,430.4,1102.9,444.2z"/>
			</g>
		</g>
		<g class="st3">
			<g>
				<path class="st4" d="M1103.4,258.1l-8.3,37.8c0,0-9.3-26.5-18.7-51c-12.7-33.2-26.8-80.4-41.8-114.1
					c-9.8-22.3-18.5-42.3-24-55.5c-10.2-24.8-28.2-24.4-43.7-17.7c1.8-5,3.6-9.8,5.3-14.4c14.6-38.7,54.5-38.6,68.8,0.2
					c7.8,21.2,16.3,46.4,24.7,73.6c10.4,33.6,20.8,70.2,29.5,106.3C1098.2,235,1100.9,246.7,1103.4,258.1z"/>
			</g>
			<g>
				<path class="st1" d="M1095.7,305.1l-2.9-8.3c-0.1-0.3-9.4-26.7-18.6-50.9c-4.9-12.8-9.9-27.4-15.2-42.9
					c-8.5-24.8-17.3-50.4-26.5-71.1c-11-24.9-19.1-43.6-24-55.6c-3.9-9.5-9.3-15.7-15.9-18.4c-6.7-2.7-14.9-2-24.5,2.1l-5.3,2.3
					l2-5.5c1.8-5,3.6-9.8,5.3-14.5c7.2-19.2,21-30.6,36.7-30.6c0,0,0.1,0,0.1,0c15.8,0,29.6,11.6,36.7,30.8
					c8.1,22.1,16.7,47.6,24.7,73.8c11.3,36.3,21.5,73.1,29.6,106.4c3.3,13.5,5.9,24.6,8.1,34.9l0.1,0.5L1095.7,305.1z M983.7,51.2
					c3.8,0,7.3,0.7,10.6,2c7.9,3.2,14.2,10.3,18.7,21.2c4.9,11.9,13,30.6,24,55.5c9.3,20.9,18.1,46.6,26.6,71.5
					c5.3,15.5,10.3,30.1,15.2,42.8c6.1,16,12.3,33,15.8,42.8l6.3-28.7c-2.2-10.1-4.8-21-8-34.2c-8.1-33.2-18.3-69.9-29.5-106.1
					c-8.1-26.1-16.6-51.5-24.6-73.5c-6.4-17.2-18.3-27.5-32-27.6c0,0-0.1,0-0.1,0c-13.6,0-25.6,10.2-32.1,27.3
					c-1.1,3-2.3,6.1-3.5,9.3C975.6,51.9,979.8,51.2,983.7,51.2z"/>
			</g>
		</g>
		<g>
			<g>
				<path class="st1" d="M1010.3,488c-1.3,0-2.6,0-3.8,0l-3,0c-25.8-0.1-94.5-0.3-116.9-61.5l-4-10.8l11.2-2.6
					c53.1-12.1,151.9-40.1,216.2-91.9l14-11.2l2.5,17.7c3,21.7,4.5,40.5,4.5,55.8c-0.2,44.8-17.5,75.7-51.6,91.9
					C1054.6,487.2,1027.1,488,1010.3,488z M1005,467.7l1.6,0c14.6,0.1,41.5,0.2,64.1-10.6c26.8-12.7,39.9-36.8,40-73.6
					c0-10.2-0.7-22.2-2.1-35.6c-61.9,43.9-145.4,69.4-198,82.2c21.4,37.4,70.9,37.5,93,37.6L1005,467.7z"/>
			</g>
			<g>
				<path class="st1" d="M889.7,434.9l-3.1-8.4c-4.7-12.8-7-27.6-6.9-44c0.1-22.6,3.5-52,10.2-87.3l0.7-6.9l7.2-1.6
					c43.6-9.5,126.6-31.6,192.2-72l11.9-7.3l3.3,13.5c9.9,40.2,17.1,76.1,21.4,106.8l0.8,5.7l-4.5,3.6
					c-67.5,54.3-169.6,83.4-224.5,95.9L889.7,434.9z M908.8,305.1c-5.7,31.4-8.7,57.4-8.8,77.5c0,10.3,1,19.8,3.1,28.3
					c53.4-12.8,141.8-39.5,202.5-86.2c-3.8-25.2-9.4-54-16.9-85.7C1026,274.7,952.2,295.2,908.8,305.1z"/>
			</g>
			<g>
				<path class="st1" d="M887.1,309.9l2.9-15.1c7.4-38.8,18.7-85.1,32.9-133.9l1.6-5.6l5.7-1.4c33.8-8.4,83.9-23.2,131.2-45.9
					l10.6-5.1l3.5,11.2c11.2,36.1,21.5,73.1,29.7,106.9l1.8,7.2l-6.3,3.9c-68.2,42-153.6,64.8-198.5,74.6L887.1,309.9z M940.8,172.1
					C929.4,212,919.9,250,913,283.2c44.2-10.6,113.2-30.9,170.7-64.7c-6.9-27.9-15.2-57.7-24.2-87.3
					C1016.6,150.6,972.7,163.9,940.8,172.1z"/>
			</g>
			<g>
				<path class="st1" d="M918,177.8l4.9-17C935.6,117,949.8,74,962.8,39.6c8.3-21.9,25.1-35.5,43.9-35.5c0,0,0.1,0,0.1,0
					c18.9,0.1,35.7,13.8,43.8,35.9c8.1,22,16.7,47.6,24.9,74.1l2.6,8.4l-7.9,3.8c-48.8,23.4-100.4,38.6-135.1,47.3L918,177.8z
					 M1006.7,24.4c-10.3,0-19.6,8.4-24.9,22.4c-11.1,29.4-23.1,65.3-34.3,102.5c30.2-8.2,68.6-20.5,106-37.6
					c-7.3-23.2-14.8-45.4-21.9-64.7C1026.4,32.9,1017.1,24.4,1006.7,24.4C1006.7,24.4,1006.7,24.4,1006.7,24.4z"/>
			</g>
		</g>
		<g>
			<path class="st1" d="M1010.4,492.1c-1.4,0-2.6,0-3.9,0l-3,0c-26.6-0.1-97.3-0.3-120.7-64.2c-4.8-13.2-7.2-28.5-7.2-45.4
				c0.1-22.9,3.5-52.4,10.3-87.9l0.1-0.6c7.4-38.9,18.8-85.4,33-134.3c12.8-43.9,26.9-87.1,40-121.5C967.9,14.6,986.1,0,1006.7,0
				c0,0,0.1,0,0.2,0c20.6,0.1,38.9,14.8,47.6,38.5c8.1,22.1,16.7,47.8,25,74.4c11.2,36.2,21.5,73.3,29.8,107.1
				c9.9,40.3,17.1,76.4,21.4,107.2c3,21.9,4.6,40.9,4.5,56.4c-0.2,57.9-29.4,83.9-53.9,95.5C1055.6,491.3,1027.5,492.1,1010.4,492.1
				z M914.1,298.7l-0.1,0.7c-6.5,34-9.8,62.1-9.9,83.3c0,13.5,1.8,25.4,5.5,35.5c14.6,39.9,55.7,45.4,94,45.5l3,0
				c14.3,0.1,40.6,0.2,62.4-10.2c25.2-12,37.5-34.9,37.7-70v0c0.1-14.2-1.4-31.8-4.2-52.3c-4.2-29.8-11.2-65-20.9-104.4
				c-8.1-33.3-18.2-69.8-29.3-105.4c-8.1-26.1-16.6-51.4-24.5-72.9c-4.5-12.2-12.6-19.9-21-19.9c0,0,0,0,0,0
				c-8.4,0-16.5,7.6-21.1,19.7c-12.8,33.8-26.7,76.2-39.3,119.4C932.5,215.4,921.3,260.8,914.1,298.7z"/>
		</g>
		<g>
			<g>
				<path class="st1" d="M1020.5,1292.2c-0.4,7.5-5.5,13.4-11.6,13.1c-6-0.3-10.6-6.6-10.2-14.2c0.4-7.5,5.5-13.4,11.6-13.1
					C1016.3,1278.3,1020.8,1284.6,1020.5,1292.2z"/>
			</g>
			<g>
				
					<ellipse transform="matrix(4.878147e-02 -0.9988 0.9988 4.878147e-02 -298.0972 2273.675)" class="st1" cx="1044.7" cy="1293.3" rx="13.6" ry="10.9"/>
			</g>
		</g>
		<g>
			<g>
				<path class="st1" d="M617.6,1003.9l30.5,17.3c6,3.4,8,11,4.7,16.9c-3.4,6-11,8-16.9,4.7c-1.4-0.8-2.5-1.8-3.5-2.9l-22.3-27.1
					c-2.1-2.5-1.7-6.2,0.8-8.3C612.9,1002.9,615.5,1002.7,617.6,1003.9z"/>
			</g>
			<g>
				<path class="st1" d="M578.2,1050.5l36,8c6.6,1.5,10.8,8.1,9.3,14.7c-1.5,6.6-8.1,10.8-14.7,9.3c-1.1-0.2-2.1-0.6-3-1.1
					l-32.6-17.1c-3.6-1.9-5-6.4-3.1-10C571.6,1051.3,575,1049.8,578.2,1050.5z"/>
			</g>
			<g>
				<path class="st1" d="M566.9,1119.9l35.5-4.1c6.8-0.8,12.9,4.1,13.7,10.8c0.8,6.8-4.1,12.9-10.8,13.7c-1.2,0.1-2.5,0.1-3.7-0.1
					l-35.2-6.5c-3.8-0.7-6.3-4.3-5.6-8.1C561.4,1122.5,563.9,1120.3,566.9,1119.9z"/>
			</g>
			<g>
				<path class="st1" d="M838.7,1101.1c-6.9-13.7-15.1-25.9-25.1-36.1c-9.9-10.3-21.4-18.4-33.7-24.5c-24.7-12.1-52.7-15-78.8-8.2
					c-26.1,6.8-49.4,23.4-64.7,46.6c-15.5,23.1-22.3,52.4-18.9,82.6l0,0.1c0.4,3.4-2,6.4-5.4,6.8c-2.8,0.3-5.3-1.3-6.3-3.7
					c-6.7-15.4-9.6-32.7-8.9-50.1c0.8-17.4,5.3-34.8,13.3-50.7c8-15.9,19.5-30.2,33.5-41.7c14-11.5,30.5-20,47.9-25
					c17.5-4.9,36.1-6.2,54.1-3.6c18,2.5,35.3,9.1,50.5,18.7c30.3,19.2,51.3,51.9,54.4,85.6c0.3,3.4-2.2,6.4-5.6,6.7
					c-2.6,0.2-5-1.2-6.1-3.4L838.7,1101.1z"/>
			</g>
		</g>
		<g>
			<path class="st1" d="M1503.2,1012.7l-22.3,27.1c-4.3,5.3-12.2,6.1-17.5,1.7c-5.3-4.3-6.1-12.2-1.7-17.5c1-1.2,2.2-2.2,3.5-2.9
				l30.5-17.3c2.8-1.6,6.4-0.6,8,2.2C1505.1,1008.3,1504.7,1010.9,1503.2,1012.7z"/>
		</g>
		<g>
			<path class="st1" d="M1540.2,1064.3l-32.6,17.1c-6,3.2-13.5,0.8-16.6-5.2c-3.2-6-0.8-13.5,5.2-16.6c1-0.5,2-0.9,3-1.1l36-8
				c4-0.9,8,1.6,8.9,5.6C1544.8,1059.5,1543.1,1062.8,1540.2,1064.3z"/>
		</g>
		<g>
			<path class="st1" d="M1546.9,1133.6l-35.2,6.5c-6.7,1.2-13.1-3.2-14.4-9.9s3.2-13.1,9.9-14.4c1.2-0.2,2.5-0.3,3.7-0.1l35.5,4.1
				c3.8,0.4,6.5,3.9,6.1,7.7C1552.2,1130.7,1549.9,1133.1,1546.9,1133.6z"/>
		</g>
		<g>
			<path class="st1" d="M1262.9,1097.9c3.1-33.7,24.1-66.4,54.4-85.6c15.2-9.6,32.5-16.2,50.5-18.7c18-2.6,36.6-1.3,54.1,3.6
				c17.5,4.9,34,13.5,47.9,25c14,11.5,25.5,25.8,33.5,41.7c8,15.9,12.5,33.4,13.3,50.7c0.7,17.4-2.2,34.7-8.9,50.1
				c-1.4,3.1-5,4.6-8.1,3.2c-2.5-1.1-4-3.7-3.7-6.3l0-0.1c3.4-30.2-3.4-59.5-18.9-82.6c-15.4-23.2-38.7-39.8-64.7-46.6
				c-26.1-6.8-54.2-3.9-78.8,8.2c-12.3,6.1-23.8,14.2-33.7,24.5c-10,10.2-18.2,22.4-25.1,36.1l-0.1,0.1c-1.5,3.1-5.3,4.3-8.3,2.8
				C1264,1102.9,1262.7,1100.4,1262.9,1097.9z"/>
		</g>
		<g>
			<g>
				<path class="st10" d="M934.2,1446.9c0-33.3,42.5-81.4,89.5-84.7c65.9-4.7,103.6,47.1,98.9,89.5c-4.7,42.4-47.1,9.4-84.7,9.4
					C989.3,1461,934.2,1508.1,934.2,1446.9z"/>
			</g>
			<g>
				<path class="st1" d="M956,1480.8c-5.5,0-10.3-1.2-14.2-4.1c-6.8-5-10.1-14.8-10.1-29.8c0-35.2,44.5-83.9,91.8-87.2
					c30.9-2.2,58.6,7.7,78.1,28c17.2,17.9,25.9,41.9,23.5,64.2c-1.1,10-4.3,16.7-9.8,20.4c-9.7,6.6-24.2,2.6-41-2
					c-12-3.3-24.4-6.7-36.4-6.7c-15.6,0-32.4,5.2-47.2,9.7C977.5,1477.2,965.7,1480.8,956,1480.8z M1031.8,1364.3
					c-2.6,0-5.3,0.1-8,0.3c-44.9,3.2-87.1,49.1-87.1,82.2c0,13.4,2.6,21.8,8.1,25.8c8.9,6.6,25.3,1.5,44.3-4.3
					c15.1-4.6,32.3-9.9,48.7-9.9c12.7,0,26,3.7,37.7,6.9c15.6,4.3,29.1,8,36.9,2.7c4.2-2.9,6.7-8.3,7.6-16.8
					c2.3-20.9-5.9-43.4-22.1-60.2C1081.2,1373.7,1057.9,1364.3,1031.8,1364.3z"/>
			</g>
		</g>
		<g>
			<path class="st1" d="M1122.5,1451.5c-1.1,10-4.4,15.9-9.2,18.8c-15.4,9.8-46.9-9.4-75.6-9.4c-35.2,0-74,24.9-92.5,14.9
				c-7-3.7-11.1-12.3-11.1-29c0-33.3,42.5-81.4,89.5-84.7C1089.5,1357.4,1127.2,1409.2,1122.5,1451.5z"/>
		</g>
		<g>
			<path class="st17" d="M1113.3,1470.4c-15.4,9.8-46.9-9.4-75.6-9.4c-35.2,0-74,24.9-92.5,14.9c15.7-25.4,40-59.9,75.3-70.4
				C1072.5,1389.9,1098.6,1443.1,1113.3,1470.4z"/>
		</g>
		<g>
			<path class="st1" d="M955.8,1494.6c-8.1,0-15.6-1.9-22.2-6.8c-10.6-7.8-15.7-21.2-15.7-40.9c0-41.2,49.2-97,104.6-101
				c35-2.5,66.6,8.9,89,32.2c20,20.8,30.2,48.9,27.2,75.3c-1.6,14.1-6.9,24.2-15.8,30.3c-15,10.1-34,4.9-52.4-0.2
				c-11.1-3.1-22.6-6.2-32.7-6.2c-13.6,0-28.6,4.6-43.2,9.1C980.9,1490.5,967.7,1494.6,955.8,1494.6z M1031.7,1378.1
				c-2.3,0-4.6,0.1-7,0.3c-39.6,2.8-74.3,44.7-74.3,68.5c0,12,2.5,14.8,2.5,14.8c3.9,2.3,21.5-3.2,32.1-6.4
				c16.1-4.9,34.3-10.5,52.7-10.5c14.5,0,28.8,3.9,41.4,7.4c8.2,2.3,22,6,25.6,4.6c-0.1-0.1,1-1.8,1.6-6.9
				c1.9-16.6-5.2-35.4-18.3-49.1C1073.9,1386,1054.1,1378.1,1031.7,1378.1z"/>
		</g>
		<g>
			<g>
				<path class="st2" d="M438.6,1041.8c10.2,2.9,18.1-9.2,11.4-17.4c-20.1-24.3-52.5-54.2-95-62.5c-75-14.7-97.6,54.2-57,80.5
					C337.8,1068.1,380.4,1025.4,438.6,1041.8z"/>
			</g>
			<g>
				<path class="st1" d="M327.7,1053.3c-10.6,0-20.9-2.3-31-8.8c-18.9-12.2-26-34.1-17.8-54.4c7.9-19.5,32.7-39.2,76.6-30.6
					c43.5,8.5,76.5,39.2,96.5,63.4c3.8,4.6,4.1,10.8,0.9,15.8c-3.3,5-9.1,7.2-14.8,5.6l0,0c-27.4-7.7-51.9-1.9-73.4,3.2
					C351.9,1050.4,339.6,1053.3,327.7,1053.3z M335.3,962.4c-29,0-45.8,14.8-51.8,29.6c-7.3,18.1-0.9,37.5,15.9,48.3
					c19.7,12.7,40.2,7.9,64,2.2c22.2-5.3,47.3-11.2,75.9-3.1l0,0c4.3,1.2,7.7-1,9.3-3.5c1.6-2.5,2.3-6.4-0.5-9.8
					c-19.5-23.6-51.6-53.4-93.6-61.7C347.6,963,341.2,962.4,335.3,962.4z"/>
			</g>
		</g>
		<g class="st3">
			<path class="st4" d="M448.8,1039.4c-0.5-1-1.2-2-2.1-2.8c-17.3-17.2-42.2-37-72.6-47c0.1,0.5,0.2,1,0.1,1.5
				c-0.3,6.7-12.4,11.6-27,11c-14.6-0.7-26.1-6.7-25.8-13.4c0.1-1.8,1-3.5,2.6-4.9c-23.4,2.8-38.6,14.5-45.7,28.5
				c-3.8-28.8,23-60.9,76.5-50.4c42.5,8.3,74.9,38.2,95,62.5C454.1,1029.4,452.8,1035.8,448.8,1039.4z"/>
		</g>
		<g class="st0">
			<g>
				<path class="st1" d="M438.6,1041.8c-58.3-16.4-100.8,26.3-140.6,0.6c-23.1-14.9-25.8-43.6-10-62.9c1.1,9.4,5.7,18.7,13.9,26.3
					c34.8,32.1,84.1-2.7,138.7,23.5c4.2,2,8.4,1.1,11.4-1.3C454.5,1035.7,447.4,1044.3,438.6,1041.8z"/>
			</g>
		</g>
		<g>
			<path class="st1" d="M327.6,1063.3c-12.1,0-24.3-2.6-36.3-10.4c-22.7-14.6-31.6-42-21.7-66.5c9.3-23,37.9-46.5,87.8-36.7
				c46.4,9.1,81.2,41.3,102.3,66.8c6.5,7.9,7.1,19,1.5,27.6c-5.6,8.6-16,12.6-25.9,9.8l0,0c-24.9-7-47-1.8-68.4,3.3
				C353.9,1060.2,340.8,1063.3,327.6,1063.3z M334.9,972.4c-23.8,0-37.3,11.2-42.1,23.3c-4.5,11.2-2.5,26.8,12.1,36.2
				c16.1,10.4,33.9,6.2,56.3,0.9c22.1-5.2,47-11.2,76-4.3c-18.7-21.6-47.6-47.1-84.5-54.3C346.2,972.9,340.3,972.4,334.9,972.4z"/>
		</g>
		<g>
			<g>
				<path class="st2" d="M365.9,1206.9c10.4-2.2,11.8-16.5,2-20.6c-29.1-12.3-71.6-23.7-113.2-11.4c-73.3,21.7-61.4,93.3-13.2,97.7
					C288.7,1276.9,306.6,1219.4,365.9,1206.9z"/>
			</g>
			<g>
				<path class="st1" d="M246.5,1275.3c-1.7,0-3.4-0.1-5.2-0.2c-22.4-2.1-38.8-18.1-41-40c-2.1-20.9,10.8-49.9,53.7-62.6
					c42.5-12.6,85.9-0.7,114.9,11.5c5.5,2.3,8.6,7.6,8.1,13.6c-0.6,6-4.7,10.6-10.6,11.8l0,0c-27.9,5.8-46.9,22.3-63.6,36.8
					C285.6,1261.2,269.2,1275.3,246.5,1275.3z M292.4,1172.1c-12.1,0-24.6,1.5-36.9,5.2c-40,11.9-52.1,38.3-50.2,57.4
					c1.9,19.4,16.6,33.6,36.5,35.5c23.4,2.2,39.3-11.7,57.8-27.7c17.2-14.9,36.7-31.8,65.8-37.9l0,0c4.4-0.9,6.3-4.4,6.6-7.4
					c0.3-2.9-0.9-6.7-5-8.5C347.2,1180.3,320.6,1172.1,292.4,1172.1z"/>
			</g>
		</g>
		<g class="st3">
			<path class="st4" d="M373.8,1200.1c-0.9-0.7-1.9-1.2-3.2-1.6c-23.3-7.3-54.5-13.2-86.1-8.1c0.3,0.4,0.6,0.8,0.8,1.3
				c2.9,6.1-5.6,16-18.8,22.2c-13.3,6.1-26.3,6.2-29.1,0.1c-0.8-1.6-0.7-3.5,0-5.5c-19.4,13.3-27.5,30.7-27.3,46.5
				c-16.7-23.8-7.8-64.6,44.5-80.1c41.5-12.3,84.1-0.8,113.2,11.4C373.9,1188.8,375.6,1195.1,373.8,1200.1z"/>
		</g>
		<g class="st0">
			<g>
				<path class="st1" d="M365.9,1206.9c-59.2,12.4-77.2,70-124.3,65.7c-27.4-2.5-43-26.7-38-51.1c5.4,7.8,13.7,14,24.5,16.9
					c45.7,12.3,73.3-41.3,133.8-43.4c4.6-0.2,8-2.9,9.5-6.4C377.1,1194.1,374.8,1205.1,365.9,1206.9z"/>
			</g>
		</g>
		<g>
			<path class="st1" d="M246.6,1285.3c-2,0-4.1-0.1-6.2-0.3c-26.9-2.5-47.4-22.6-50-48.9c-2.4-24.7,12-58.7,60.8-73.2
				c45.3-13.4,91.1-1,121.6,11.9c9.4,4,15.1,13.5,14.1,23.7c-1,10.2-8.4,18.6-18.5,20.7l0,0c-25.3,5.3-42.5,20.2-59.1,34.6
				C291.5,1269.3,273,1285.3,246.6,1285.3z M292.4,1182.1c-11.3,0-22.8,1.4-34.1,4.8c-34.2,10.1-44.6,30.8-43.1,46.8
				c1.2,12,10.1,24.9,27.4,26.5c19.2,1.8,32.9-10.2,50.3-25.3c17.1-14.9,36.5-31.6,65.3-39C340.1,1188.7,316.8,1182.1,292.4,1182.1z
				 M365.9,1206.9L365.9,1206.9L365.9,1206.9z M363.3,1194.7C363.3,1194.7,363.3,1194.7,363.3,1194.7L363.3,1194.7L363.3,1194.7z"/>
		</g>
		<g>
			<g>
				<path class="st2" d="M174.8,1082.8c10.3-2.5,11.2-16.9,1.3-20.7c-29.5-11.2-72.5-21.1-113.5-7.3c-72.4,24.4-58,95.4-9.7,98.1
					C100.2,1155.6,116.1,1097.4,174.8,1082.8z"/>
			</g>
			<g>
				<path class="st1" d="M56,1155.5c-1.1,0-2.1,0-3.2-0.1c-22.4-1.3-39.5-16.7-42.4-38.5c-2.8-20.8,9-50.2,51.4-64.5
					c42-14.1,85.8-3.8,115.2,7.4c5.5,2.1,8.9,7.3,8.5,13.3c-0.4,6-4.3,10.8-10.1,12.2l0,0c-27.7,6.8-46,24-62.2,39.1
					C96.1,1140.4,79.8,1155.5,56,1155.5z M105.5,1050.6c-13.8,0-28.1,1.9-42.1,6.6c-39.6,13.3-50.6,40.2-48.1,59.1
					c2.6,19.3,17.8,33,37.7,34.1c23.4,1.2,38.9-13.1,56.7-29.7c16.7-15.5,35.5-33.1,64.4-40.3l0,0c4.4-1.1,6.2-4.7,6.3-7.7
					c0.2-3-1.1-6.7-5.3-8.3C156.5,1057.4,131.8,1050.6,105.5,1050.6z"/>
			</g>
		</g>
		<g class="st3">
			<path class="st4" d="M182.5,1075.8c-0.9-0.6-2-1.1-3.2-1.4c-23.5-6.4-55-11.3-86.3-5c0.3,0.4,0.6,0.8,0.8,1.2
				c3.1,6-5,16.2-18,22.9c-13,6.6-26,7.1-29.1,1.1c-0.8-1.6-0.9-3.5-0.2-5.5c-18.9,14-26.4,31.7-25.6,47.4
				c-17.5-23.1-10.1-64.3,41.6-81.6c41.1-13.8,84-3.9,113.5,7.3C182.2,1064.4,184.2,1070.7,182.5,1075.8z"/>
		</g>
		<g class="st0">
			<g>
				<path class="st1" d="M174.8,1082.9c-58.7,14.5-74.6,72.7-121.9,70.1c-27.4-1.5-44-25.1-39.8-49.7c5.7,7.6,14.2,13.5,25.1,16
					c46.1,10.7,71.7-43.9,132.1-48.2c4.6-0.3,7.9-3.2,9.3-6.8C185.6,1069.7,183.7,1080.7,174.8,1082.9z"/>
			</g>
		</g>
		<g>
			<path class="st1" d="M56.1,1165.5c-1.3,0-2.5,0-3.8-0.1c-26.9-1.5-48.2-20.9-51.8-47.1c-3.3-24.6,9.9-59.1,58.2-75.3
				c44.8-15.1,91-4.2,121.9,7.5c9.6,3.6,15.6,13,15,23.2c-0.6,10.3-7.7,18.8-17.7,21.3l0,0c-25.1,6.2-41.7,21.7-57.8,36.7
				C102.2,1148.3,83.8,1165.5,56.1,1165.5z M105.5,1060.6c-12.8,0-26,1.7-38.9,6.1c-33.8,11.4-43.5,32.4-41.4,48.3
				c1.6,12,11,24.5,28.4,25.5c19.3,1.1,32.5-11.3,49.3-27.1c16.6-15.5,35.3-32.9,63.9-41.3C149.7,1066,128.2,1060.6,105.5,1060.6z"
				/>
		</g>
		<g>
			<g>
				<path class="st2" d="M1652.4,1041.8c-10.2,2.9-18.1-9.2-11.4-17.4c20.1-24.3,52.5-54.2,95-62.5c75-14.7,97.6,54.2,57,80.5
					C1753.2,1068.1,1710.7,1025.4,1652.4,1041.8z"/>
			</g>
			<g>
				<path class="st1" d="M1763.4,1053.3c-11.9,0-24.2-2.9-36.9-5.9c-21.6-5.1-46-10.9-73.4-3.2l0,0c-5.7,1.6-11.6-0.6-14.8-5.6
					c-3.3-5-2.9-11.2,0.9-15.8c20-24.2,53-54.9,96.5-63.4c44-8.6,68.8,11.1,76.6,30.6c8.2,20.3,1,42.2-17.8,54.4
					C1784.3,1051,1773.9,1053.3,1763.4,1053.3z M1680.8,1035.4c17,0,32.5,3.7,46.8,7.1c23.8,5.6,44.3,10.5,64-2.2
					c16.8-10.9,23.2-30.3,15.9-48.3c-7.2-17.7-30-35.6-71-27.6c-42,8.2-74.1,38.1-93.6,61.7c-2.9,3.5-2.2,7.4-0.5,9.8
					c1.6,2.5,4.9,4.7,9.3,3.5C1661.9,1036.5,1671.5,1035.4,1680.8,1035.4z"/>
			</g>
		</g>
		<g class="st3">
			<path class="st4" d="M1642.2,1039.4c0.5-1,1.2-2,2.1-2.8c17.3-17.2,42.2-37,72.6-47c-0.1,0.5-0.2,1-0.1,1.5
				c0.3,6.7,12.4,11.6,27,11c14.6-0.7,26.1-6.7,25.8-13.4c-0.1-1.8-1-3.5-2.6-4.9c23.4,2.8,38.6,14.5,45.7,28.5
				c3.8-28.8-23-60.9-76.5-50.4c-42.5,8.3-74.9,38.2-95,62.5C1636.9,1029.4,1638.3,1035.8,1642.2,1039.4z"/>
		</g>
		<g class="st0">
			<g>
				<path class="st1" d="M1652.4,1041.8c58.3-16.4,100.8,26.3,140.6,0.6c23.1-14.9,25.8-43.6,10-62.9c-1.1,9.4-5.7,18.7-13.9,26.3
					c-34.8,32.1-84.1-2.7-138.7,23.5c-4.2,2-8.4,1.1-11.4-1.3C1636.5,1035.7,1643.6,1044.3,1652.4,1041.8z"/>
			</g>
		</g>
		<g>
			<path class="st1" d="M1763.5,1063.3c-13.2,0-26.3-3.1-39.3-6.2c-21.4-5.1-43.5-10.3-68.4-3.3l0,0c-9.9,2.8-20.3-1.1-25.9-9.8
				c-5.6-8.6-5-19.7,1.5-27.6c21.1-25.5,55.9-57.8,102.3-66.8c50-9.8,78.5,13.7,87.8,36.7c9.9,24.5,1,51.9-21.7,66.5
				C1787.8,1060.7,1775.6,1063.3,1763.5,1063.3z M1652.4,1041.8L1652.4,1041.8L1652.4,1041.8z M1680.9,1025.4
				c17.9,0,34.2,3.9,49.1,7.4c22.4,5.3,40.1,9.5,56.3-0.9c14.6-9.4,16.6-25,12.1-36.2c-6-14.9-24.8-28.3-59.8-21.5
				c-36.9,7.2-65.8,32.7-84.5,54.3C1663.4,1026.3,1672.3,1025.4,1680.9,1025.4z"/>
		</g>
		<g>
			<g>
				<path class="st2" d="M1725.2,1206.9c-10.4-2.2-11.8-16.5-2-20.6c29.1-12.3,71.6-23.7,113.2-11.4c73.3,21.7,61.4,93.3,13.2,97.7
					C1802.4,1276.9,1784.4,1219.4,1725.2,1206.9z"/>
			</g>
			<g>
				<path class="st1" d="M1844.5,1275.3c-22.7,0-39.1-14.2-56.3-29.1c-16.7-14.5-35.7-31-63.6-36.8l0,0c-5.8-1.2-10-5.9-10.6-11.8
					c-0.6-5.9,2.6-11.3,8.1-13.6c29-12.2,72.4-24.1,114.9-11.5c43,12.7,55.8,41.7,53.7,62.6c-2.1,21.8-18.6,37.9-41,40
					C1848,1275.2,1846.2,1275.3,1844.5,1275.3z M1725.7,1204.5c29.2,6.1,48.7,23,65.8,37.9c18.4,16,34.3,29.8,57.8,27.7
					c19.9-1.8,34.6-16.1,36.5-35.5c1.9-19-10.1-45.5-50.2-57.4c-41-12.2-83.3-0.6-111.5,11.3c-4.1,1.7-5.3,5.5-5,8.5
					C1719.4,1200.1,1721.2,1203.6,1725.7,1204.5L1725.7,1204.5z"/>
			</g>
		</g>
		<g class="st3">
			<path class="st4" d="M1717.2,1200.1c0.9-0.7,1.9-1.2,3.2-1.6c23.3-7.3,54.5-13.2,86.1-8.1c-0.3,0.4-0.6,0.8-0.8,1.3
				c-2.9,6.1,5.6,16,18.8,22.2c13.3,6.1,26.3,6.2,29.1,0.1c0.8-1.6,0.7-3.5,0-5.5c19.4,13.3,27.5,30.7,27.3,46.5
				c16.7-23.8,7.8-64.6-44.5-80.1c-41.5-12.3-84.1-0.8-113.2,11.4C1717.2,1188.8,1715.4,1195.1,1717.2,1200.1z"/>
		</g>
		<g class="st0">
			<g>
				<path class="st1" d="M1725.2,1206.9c59.2,12.4,77.2,70,124.3,65.7c27.4-2.5,43-26.7,38-51.1c-5.4,7.8-13.7,14-24.5,16.9
					c-45.7,12.3-73.3-41.3-133.8-43.4c-4.6-0.2-8-2.9-9.5-6.4C1713.9,1194.1,1716.2,1205.1,1725.2,1206.9z"/>
			</g>
		</g>
		<g>
			<path class="st1" d="M1844.5,1285.3c-26.4,0-44.9-16-62.8-31.6c-16.6-14.4-33.7-29.3-59.1-34.6l0,0
				c-10.1-2.1-17.5-10.4-18.5-20.7c-1-10.2,4.7-19.8,14.1-23.7c30.5-12.8,76.3-25.3,121.6-11.9c48.8,14.5,63.3,48.5,60.8,73.2
				c-2.6,26.3-23.2,46.5-50,48.9C1848.5,1285.2,1846.5,1285.3,1844.5,1285.3z M1732.7,1195.9c28.9,7.4,48.2,24.1,65.3,39
				c17.4,15.1,31,27,50.3,25.3c17.3-1.6,26.3-14.5,27.4-26.5c1.6-16-8.9-36.7-43.1-46.8C1796.7,1176.2,1759.3,1185.4,1732.7,1195.9z
				 M1727.7,1194.7L1727.7,1194.7C1727.7,1194.7,1727.7,1194.7,1727.7,1194.7L1727.7,1194.7z"/>
		</g>
		<g>
			<g>
				<path class="st2" d="M1916.2,1082.8c-10.3-2.5-11.2-16.9-1.3-20.7c29.5-11.2,72.5-21.1,113.5-7.3c72.4,24.4,58,95.4,9.7,98.1
					C1990.8,1155.6,1975,1097.4,1916.2,1082.8z"/>
			</g>
			<g>
				<path class="st1" d="M2035,1155.5c-23.8,0-40.1-15.2-57.2-31.2c-16.2-15.1-34.6-32.2-62.2-39.1c-5.8-1.4-9.8-6.2-10.1-12.2
					c-0.4-6,3-11.2,8.5-13.3c29.4-11.1,73.2-21.5,115.2-7.4c42.5,14.3,54.3,43.7,51.4,64.5c-2.9,21.7-20,37.2-42.4,38.5
					C2037.2,1155.5,2036.1,1155.5,2035,1155.5z M1985.5,1050.6c-26.2,0-51,6.8-69.7,13.9c-4.2,1.6-5.5,5.3-5.3,8.3
					c0.2,3,1.9,6.6,6.3,7.7l0,0c28.9,7.2,47.8,24.8,64.4,40.3c17.9,16.7,33.3,31,56.7,29.7c20-1.1,35.1-14.8,37.7-34.1
					c2.6-19-8.5-45.8-48.1-59.1C2013.6,1052.5,1999.4,1050.6,1985.5,1050.6z"/>
			</g>
		</g>
		<g class="st3">
			<path class="st4" d="M1908.5,1075.8c0.9-0.6,2-1.1,3.2-1.4c23.5-6.4,55-11.3,86.3-5c-0.3,0.4-0.6,0.8-0.8,1.2
				c-3.1,6,5,16.2,18,22.9c13,6.6,26,7.1,29.1,1.1c0.8-1.6,0.9-3.5,0.2-5.5c18.9,14,26.4,31.7,25.6,47.4
				c17.5-23.1,10.1-64.3-41.6-81.6c-41.1-13.8-84-3.9-113.5,7.3C1908.9,1064.4,1906.9,1070.7,1908.5,1075.8z"/>
		</g>
		<g class="st0">
			<g>
				<path class="st1" d="M1916.2,1082.9c58.7,14.5,74.6,72.7,121.9,70.1c27.4-1.5,44-25.1,39.8-49.7c-5.7,7.6-14.2,13.5-25.1,16
					c-46.1,10.7-71.7-43.9-132.1-48.2c-4.6-0.3-7.9-3.2-9.3-6.8C1905.4,1069.7,1907.3,1080.7,1916.2,1082.9z"/>
			</g>
		</g>
		<g>
			<path class="st1" d="M2035,1165.5c-27.7,0-46.1-17.2-64-33.8c-16.1-15-32.7-30.5-57.8-36.7c-10-2.5-17.1-11-17.7-21.3
				c-0.6-10.2,5.4-19.6,15-23.2c30.9-11.7,77.1-22.6,121.9-7.5c48.2,16.2,61.5,50.7,58.2,75.3c-3.5,26.2-24.8,45.6-51.8,47.1
				C2037.5,1165.5,2036.2,1165.5,2035,1165.5z M1924.2,1072.1c28.6,8.4,47.3,25.9,63.9,41.3c16.9,15.7,30.1,28.1,49.4,27.1
				c17.4-1,26.8-13.5,28.4-25.5c2.1-15.9-7.6-36.9-41.4-48.3C1988.8,1054.7,1951.1,1062.5,1924.2,1072.1z"/>
		</g>
		<g>
			<path class="st4" d="M1411.7,1826.1c0,0-45.2,107.2-237.7,201.6c-223.4,109.6-110.8,260.5,20,266.7
				c236.7,11.2,304.2-146.3,304.2-146.3"/>
		</g>
		<g>
			<path class="st6" d="M1192.1,2294.4c125.6,5.9,203.5-35.6,249-75.9c-10.7-73.3-51.1-214-204.9-225.7
				c-19.3,11.7-40.6,23.4-64.1,34.9C948.7,2137.3,1061.3,2288.2,1192.1,2294.4z"/>
		</g>
		<g class="st9">
			<path class="st4" d="M1411.8,1864.8c0,0,0,115.3-213.8,206.4c-81.6,34.7-140.5,78.6-149.1,119.7
				c-10.9-50.6,19.7-111.5,125.2-163.2c192.5-94.4,237.7-201.6,237.7-201.6V1864.8z"/>
		</g>
		<g class="st7">
			<path class="st1" d="M1498.1,2148.1c0,0-67.5,157.5-304.2,146.3c-91.4-4.3-173.9-79.3-139-161.6c20.7,47.1,77.9,81.7,139,84.6
				c132.8,6.3,212.4-40.6,256.6-82.9C1466.3,2119.5,1492.5,2127,1498.1,2148.1L1498.1,2148.1z"/>
		</g>
		<g>
			<path class="st1" d="M1416.7,1828.2c-3,25.5-15.9,46.2-30.4,64.7c-3.7,4.6-7.4,9.3-11.4,13.5c-4,4.3-8.1,8.5-12.2,12.8
				c-8.6,7.9-17.2,16-26.3,23.2c-4.6,3.6-8.9,7.5-13.6,11L1309,1964l-6.9,5.4l-7.1,5l-14.2,10.1c-9.5,6.7-19.4,12.6-29.1,18.9
				c-9.8,6.1-19.9,11.6-29.9,17.5c-20.1,11.1-41.3,21.6-60.1,31.5c-18.9,10.6-37,22.6-52.9,36.4c-2,1.8-4.1,3.4-5.9,5.2l-5.5,5.5
				c-3.8,3.6-6.9,7.6-10.3,11.5c-1.7,1.9-3.2,4-4.6,6.1l-4.4,6.2l-3.7,6.5l-1.8,3.2l-1.5,3.3c-4.4,8.8-6.6,18.1-7.7,27.3
				c-1.2,9.3-0.2,18.7,2.2,27.7c2.5,9,6.3,17.9,11.8,25.9c5.5,8.1,12.1,15.5,19.5,22.3c7.6,6.6,16,12.5,24.8,17.6
				c9,4.9,18.4,9.2,28.2,12.4c9.8,3.1,19.8,5.8,30,7c2.5,0.5,5.1,0.7,7.7,0.9c2.6,0.2,5.1,0.5,7.7,0.6l16.4,0.4
				c21.9,0.2,43.7-1,65.1-4.1c42.9-6,84.5-20,120.7-42.5c9-5.7,17.7-11.9,26-18.6c8.2-6.7,15.6-14.5,22.6-22.3
				c14.5-15.6,27.2-31.5,46.8-45.2l0.6-0.5c2.7-1.9,6.4-1.2,8.3,1.5c0.7,1,1,2.1,1.1,3.2c0.3,13.7-3.9,25.4-9.7,36.1
				c-5.9,10.7-13.4,20.2-22,28.7c-17.5,16.6-36.2,31.7-56.4,44.5c-40.6,25.3-86.8,40.6-133.3,47.2c-23.3,3.3-46.8,4.6-70.2,4.4
				l-17.5-0.5c-3-0.1-6.1-0.5-9.2-0.7c-3.1-0.2-6.1-0.5-9.2-1c-12.3-1.5-24.2-4.7-35.9-8.4c-11.7-3.9-22.9-9-33.8-15
				c-10.7-6.2-20.9-13.4-30.4-21.6c-9.3-8.4-17.8-18-25-28.6c-7.2-10.6-12.7-22.8-16.1-35.5c-7.3-25.6-3.6-54,7.4-77.1l2-4.4
				l2.3-4.2l4.7-8.3l5.4-7.7c1.8-2.6,3.6-5.2,5.6-7.4c4-4.7,7.9-9.6,12.3-13.8l6.5-6.5c2.2-2.1,4.5-4,6.8-6
				c18.2-15.9,38.1-29,58.6-40.5c21.2-11.2,40.5-20.7,60-31.5c9.5-5.6,19.3-10.9,28.7-16.8c9.2-6,18.8-11.7,27.8-18.1
				c18-12.6,36-25.6,51.9-40.6c16.2-14.7,31.3-30.4,46.3-46.1c14.7-15.9,29.4-31.6,46.1-46.9l0.6-0.6c2.3-2.1,5.8-1.9,7.9,0.4
				C1416.4,1825,1416.9,1826.6,1416.7,1828.2z"/>
		</g>
		<g>
			<path class="st1" d="M720.6,2541.5c14.8,0.6,27.5,4.9,39.7,10.1l36.6,15.4c6.1,2.6,12.2,5.1,18.2,7.8c6.1,2.6,12.1,5.2,18.1,7.9
				c12.1,5.3,24.1,10.7,35.8,16.6l0.1,0.1c8,4,11.3,13.8,7.3,21.8c-3.8,7.7-13,11-20.8,7.8c-12.4-5.1-24.6-10.8-36.5-17
				c-6-3-11.9-6.2-17.8-9.4c-5.9-3.2-11.7-6.5-17.5-9.9c-11.6-6.7-23-13.8-34.3-21c-11.3-7.2-22.1-15.4-30.5-27.7
				c-0.5-0.7-0.3-1.6,0.4-2.1C719.9,2541.6,720.3,2541.5,720.6,2541.5z"/>
		</g>
		<g>
			<path class="st1" d="M1318.4,2543.9c-8.4,12.3-19.2,20.6-30.5,27.7c-11.3,7.2-22.7,14.4-34.3,21c-5.8,3.4-11.6,6.7-17.5,9.9
				c-5.9,3.2-11.8,6.4-17.8,9.4c-11.9,6.2-24.1,11.9-36.5,17c-8.3,3.4-17.8-0.5-21.2-8.8c-3.3-7.9,0.2-17,7.8-20.8l0.2-0.1
				c11.8-5.9,23.8-11.2,35.9-16.6c6-2.7,12.1-5.3,18.1-7.9c6-2.7,12.1-5.3,18.2-7.8l36.6-15.4c12.2-5.2,24.9-9.5,39.7-10.1
				c0.8,0,1.5,0.6,1.6,1.4C1318.7,2543.3,1318.6,2543.6,1318.4,2543.9z"/>
		</g>
	</g>
</g>
</svg>
