<?xml version="1.0" encoding="utf-8"?>
<!-- Generator: Adobe Illustrator 25.4.1, SVG Export Plug-In . SVG Version: 6.00 Build 0)  -->
<svg version="1.1" id="Layer_1" xmlns="http://www.w3.org/2000/svg" xmlns:xlink="http://www.w3.org/1999/xlink" x="0px" y="0px"
	 viewBox="0 0 191.6 195.8" style="enable-background:new 0 0 191.6 195.8;" xml:space="preserve">
<style type="text/css">
	.st0{opacity:0.6;fill:#C4C6C8;}
	.st1{fill:#D0A68D;}
	.st2{fill:#B5826A;}
	.st3{opacity:0.3;fill:#D0A68D;}
	.st4{fill:#BEA18D;}
	.st5{fill:#A2755F;}
	.st6{opacity:0.4;fill:#BEA18D;}
	.st7{fill:#545454;}
</style>
<g>
	<polygon class="st0" points="139.5,164.2 94.5,164.2 90.5,164.2 51.5,164.2 44.7,195.8 89.1,195.8 94.5,195.8 146.3,195.8 	"/>
	<g>
		<rect x="49.3" y="98.6" class="st1" width="93.1" height="93.1"/>
		<path class="st2" d="M142.4,192.1H49.3c-0.2,0-0.4-0.2-0.4-0.4V98.6c0-0.2,0.2-0.4,0.4-0.4h93.1c0.2,0,0.4,0.2,0.4,0.4v93.1
			C142.8,191.9,142.6,192.1,142.4,192.1z M49.7,191.3h92.3V99H49.7V191.3z"/>
	</g>
	<path class="st3" d="M49.3,98.6v93.1h93.1V98.6H49.3z M128.2,186.8c0,3-6.7,2.7-6.7,2.7H57.2c-6.3,0-5.5-7.5-5.5-7.5s0-48.3,0-53.7
		c0-5.4,5.4-5.4,5.4-5.4h45.6h19c6.3,0,6.6,7.1,6.6,7.1V186.8z"/>
	<g>
		<polygon class="st4" points="136.2,81.5 95,81.5 91.3,81.5 55.6,81.5 49.3,98.6 90.1,98.6 95,98.6 142.4,98.6 		"/>
		<path class="st2" d="M142.4,99H49.3c-0.1,0-0.2-0.1-0.3-0.2c-0.1-0.1-0.1-0.2,0-0.4l6.2-17.1c0.1-0.2,0.2-0.3,0.4-0.3h80.6
			c0.2,0,0.3,0.1,0.4,0.3l6.2,17.1c0,0.1,0,0.2,0,0.4C142.7,98.9,142.6,99,142.4,99z M49.9,98.2h92l-6-16.4H55.8L49.9,98.2z"/>
	</g>
	<g>
		<polygon class="st4" points="136.3,98.6 142.4,98.6 136.2,81.5 		"/>
		<path class="st5" d="M142.4,99h-6.1c-0.2,0-0.4-0.2-0.4-0.4l-0.1-17.1c0-0.2,0.1-0.3,0.3-0.4c0.2,0,0.4,0.1,0.4,0.2l6.2,17.1
			c0,0.1,0,0.2,0,0.4C142.7,98.9,142.6,99,142.4,99z M136.7,98.2h5.2l-5.3-14.5L136.7,98.2z"/>
	</g>
	<g>
		<polygon class="st4" points="55.4,82 49.3,98.6 55.4,98.6 		"/>
		<path class="st5" d="M55.4,99h-6c-0.1,0-0.2-0.1-0.3-0.2c-0.1-0.1-0.1-0.2,0-0.4l6-16.6c0.1-0.2,0.2-0.3,0.4-0.2
			c0.2,0,0.3,0.2,0.3,0.4v16.6C55.7,98.8,55.6,99,55.4,99z M49.9,98.2H55v-14L49.9,98.2z"/>
	</g>
	<polygon class="st6" points="136.3,98.6 142.4,98.6 136.2,81.5 	"/>
	<polygon class="st6" points="55.4,82 49.3,98.6 55.4,98.6 	"/>
	<g>
		<polygon class="st1" points="49.3,98.6 33.8,85.9 43,71.6 55.6,81.5 		"/>
		<path class="st2" d="M49.3,99c-0.1,0-0.2,0-0.2-0.1L33.6,86.2c-0.2-0.1-0.2-0.3-0.1-0.5l9.2-14.3c0.1-0.1,0.2-0.2,0.3-0.2
			c0.1,0,0.2,0,0.3,0.1l12.5,9.9c0.1,0.1,0.2,0.3,0.1,0.4l-6.2,17.1c0,0.1-0.1,0.2-0.3,0.2C49.4,99,49.4,99,49.3,99z M34.3,85.8
			L49.2,98l6-16.4l-12-9.4L34.3,85.8z"/>
	</g>
	<path class="st6" d="M43,71.6l-9.2,14.3l15.5,12.7l6.2-17.1L43,71.6z M49,95l-12.5-9.4l7.4-11.2l10,8.8L49,95z"/>
	<g>
		<polygon class="st1" points="142.3,98.6 157.8,85.9 148.6,71.6 136.1,81.5 		"/>
		<path class="st2" d="M142.3,99c0,0-0.1,0-0.1,0c-0.1,0-0.2-0.1-0.3-0.2l-6.2-17.1c-0.1-0.2,0-0.3,0.1-0.4l12.5-9.9
			c0.1-0.1,0.2-0.1,0.3-0.1c0.1,0,0.2,0.1,0.3,0.2l9.2,14.3c0.1,0.2,0.1,0.4-0.1,0.5l-15.5,12.7C142.5,99,142.4,99,142.3,99z
			 M136.5,81.6l6,16.4l14.8-12.1l-8.8-13.7L136.5,81.6z"/>
	</g>
	<path class="st6" d="M148.6,71.6l-12.5,9.9l6.2,17.1l15.5-12.7L148.6,71.6z M139.3,81.5l8.2-7l7,10.7l-9.9,8.9L139.3,81.5z"/>
	<g>
		<polygon class="st1" points="49.3,98.6 46.8,118.4 144.6,118.4 142.4,98.6 		"/>
		<path class="st2" d="M144.6,118.8H46.8c-0.1,0-0.2,0-0.3-0.1c-0.1-0.1-0.1-0.2-0.1-0.3l2.5-19.8c0-0.2,0.2-0.3,0.4-0.3h93.1
			c0.2,0,0.4,0.1,0.4,0.3l2.2,19.8c0,0.1,0,0.2-0.1,0.3C144.8,118.8,144.7,118.8,144.6,118.8z M47.2,118.1h97L142.1,99H49.7
			L47.2,118.1z"/>
	</g>
	<g>
		<polygon class="st1" points="120.1,67.4 71.7,67.4 52.2,67.4 55.4,81.5 71.7,81.5 120.1,81.5 136.5,81.5 139.6,67.4 		"/>
		<path class="st2" d="M136.5,81.8H55.4c-0.2,0-0.3-0.1-0.4-0.3l-3.1-14c0-0.1,0-0.2,0.1-0.3c0.1-0.1,0.2-0.1,0.3-0.1h87.4
			c0.1,0,0.2,0.1,0.3,0.1c0.1,0.1,0.1,0.2,0.1,0.3l-3.1,14C136.8,81.7,136.7,81.8,136.5,81.8z M55.7,81.1h80.5l3-13.3H52.7
			L55.7,81.1z"/>
	</g>
	<path class="st6" d="M120.1,67.4H71.7H52.2l3.1,14h16.4h48.4h16.4l3.1-14H120.1z M126.6,79.6h-70L54.1,69h74.7L126.6,79.6z"/>
	<polygon class="st4" points="136.2,99.7 50.4,99.7 47.8,115.6 51.2,101.6 	"/>
	<polygon class="st4" points="126.3,188.1 56.7,188.1 122.8,187.1 	"/>
	<g>
		<g>
			<path class="st7" d="M81.7,176.6v-33.2c0,0-0.4,0.1-1.1,0.3c-0.7,0.2-1.5,0.3-2.4,0.5c-0.9,0.2-1.7,0.3-2.4,0.4s-1.1,0.2-1.1,0.2
				v-4c0.6-0.1,1.2-0.3,2-0.5c0.7-0.2,1.5-0.5,2.3-0.8c0.8-0.3,1.5-0.7,2.2-1.2c0.7-0.5,1.3-1.1,1.8-1.7h4v40.1H81.7z"/>
			<path class="st7" d="M105.7,177.1c-2.3,0-4.2-0.5-5.6-1.5c-1.5-1-2.6-2.4-3.3-4.2c-0.7-1.8-1.1-3.8-1.1-6.1V148
				c0-2.3,0.3-4.4,1-6.2c0.7-1.8,1.8-3.1,3.2-4.1c1.5-1,3.4-1.5,5.7-1.5c2.3,0,4.2,0.5,5.6,1.5c1.5,1,2.5,2.4,3.2,4.1
				c0.7,1.8,1,3.8,1,6.2v17.3c0,2.3-0.4,4.4-1.1,6.1c-0.7,1.8-1.8,3.2-3.2,4.2C109.9,176.6,108,177.1,105.7,177.1z M105.7,172.7
				c1.3,0,2.2-0.4,2.8-1.1c0.6-0.7,1.1-1.7,1.3-2.8c0.2-1.1,0.4-2.3,0.4-3.5v-17.4c0-1.3-0.1-2.5-0.3-3.6s-0.7-2.1-1.3-2.7
				s-1.6-1-2.9-1s-2.3,0.3-2.9,1s-1.1,1.6-1.3,2.7c-0.2,1.1-0.3,2.4-0.3,3.6v17.4c0,1.2,0.1,2.4,0.4,3.5c0.2,1.1,0.7,2.1,1.4,2.8
				C103.5,172.4,104.5,172.7,105.7,172.7z"/>
		</g>
	</g>
</g>
</svg>
